<?xml version="1.0" encoding="UTF-8" standalone="no"?>
<!-- Created with Inkscape (http://www.inkscape.org/) -->

<svg
   xmlns:dc="http://purl.org/dc/elements/1.1/"
   xmlns:cc="http://creativecommons.org/ns#"
   xmlns:rdf="http://www.w3.org/1999/02/22-rdf-syntax-ns#"
   xmlns:svg="http://www.w3.org/2000/svg"
   xmlns="http://www.w3.org/2000/svg"
   xmlns:sodipodi="http://sodipodi.sourceforge.net/DTD/sodipodi-0.dtd"
   xmlns:inkscape="http://www.inkscape.org/namespaces/inkscape"
   width="210mm"
   height="297mm"
   id="svg5409"
   version="1.1"
   inkscape:version="0.48.4 r9939"
   sodipodi:docname="Neues Dokument 10">
  <defs
     id="defs5411" />
  <sodipodi:namedview
     id="base"
     pagecolor="#ffffff"
     bordercolor="#666666"
     borderopacity="1.0"
     inkscape:pageopacity="0.0"
     inkscape:pageshadow="2"
     inkscape:zoom="2.8"
     inkscape:cx="344.69403"
     inkscape:cy="780.15088"
     inkscape:document-units="px"
     inkscape:current-layer="layer1"
     showgrid="false"
     inkscape:window-width="1920"
     inkscape:window-height="1017"
     inkscape:window-x="-8"
     inkscape:window-y="-8"
     inkscape:window-maximized="1" />
  <metadata
     id="metadata5414">
    <rdf:RDF>
      <cc:Work
         rdf:about="">
        <dc:format>image/svg+xml</dc:format>
        <dc:type
           rdf:resource="http://purl.org/dc/dcmitype/StillImage" />
        <dc:title></dc:title>
      </cc:Work>
    </rdf:RDF>
  </metadata>
  <g
     inkscape:label="Ebene 1"
     inkscape:groupmode="layer"
     id="layer1">
    <path
       style="fill:#000000"
       d="m 128.21875,213.21875 c -8.78871,0 -11.27833,5.77106 -10.21875,23.53125 0.86678,14.52847 6.13468,22.76723 18.125,28.34375 4.73668,2.20297 8.2242,3.38691 17.87167,2.2251 13.75428,-1.6564 15.20811,-1.68668 38.94083,-0.88135 13.55653,0.46003 19.78137,0.43838 20.1875,-0.21875 0.3414,-0.55241 -0.52336,-2.57318 -1,-3.28125 -0.61975,-0.92066 -2.25302,-3.57151 -2.53125,-4.3125 -3.07799,-5.86155 -4.12784,-12.27781 -7.59375,-18.65625 -1.05542,-2.31638 -9.07149,-8.75 -10.90625,-8.75 -0.41476,0 -2.57635,-0.85972 -4.8125,-1.90625 -2.23614,-1.04653 -8.7875,-3.28802 -14.5625,-5 -5.775,-1.71197 -12.75,-3.79939 -15.5,-4.625 -13.85393,-4.15925 -23.85402,-6.46875 -28,-6.46875 z m 386.625,0.125 c -0.60685,0.0155 -1.2375,0.0643 -1.90625,0.125 -5.26693,0.4779 -8.80461,1.34844 -27.21875,6.71875 -3.575,1.04262 -10.775,3.14604 -16,4.65625 -15.28627,4.41826 -25.80511,9.12697 -28.18909,15.29672 -0.63807,1.39819 -1.01829,2.1894 -1.65466,3.89078 l -7.1323,15.91291 -2.57503,5.99937 c 0.38246,1.38601 3.67784,1.09515 12.70733,0.86897 21.98207,-0.55064 38.90399,-0.91457 43.13393,0.12951 8.96096,2.21183 16.5603,0.47173 22.30357,-2.25446 5.57747,-3.02769 6.03808,-3.60023 8.87563,-5.93877 2.04713,-2.09673 3.57629,-4.06668 5.09312,-7.24873 2.31952,-4.86594 2.84551,-7.45021 3.21875,-16.28125 0.7199,-17.03341 -1.55355,-22.108 -10.65625,-21.875 z m -193.5625,19.7812 c -15.43359,-0.0215 -30.73555,0.68189 -33.8125,2.125 -4.54334,2.13087 -6.6414,7.02383 -10.21875,23.71875 -1.35851,6.33992 -1.37419,7.69777 -0.125,10.6875 1.80069,4.30967 5.17341,6.51539 12.40625,8.15625 4.11431,0.93341 13.74415,1.22042 34.6875,1.03125 24.54668,-0.22171 29.68388,-0.51794 33.46875,-1.96875 9.97158,-3.82229 11.07709,-7.54015 7.09375,-23.875 -3.05845,-12.54209 -4.81743,-16.03092 -8.875,-17.65625 -3.62592,-1.45245 -19.19141,-2.19728 -34.625,-2.21875 z m -44.53125,2.5938 c -1.48136,0 -3.75564,5.42038 -8.21875,19.5 0,0 -1.90673,6.17551 -2.8125,7 -0.90577,0.82449 -14.5,1.09375 -14.5,1.09375 -10.89102,0.47196 -26.68611,-0.98919 -31.24302,-2.8125 -4.57681,-1.83128 -6.06828,-5.03081 -8.8125,-12.96875 -1.68602,-4.87696 -3.41363,-10.32102 -4.59375,-10.09375 -0.84427,0.1626 -1.76035,1.31372 -2.09375,2.59375 0,0 6.70598,18.13578 7.625,19.75 1.01924,1.79025 2.12589,2.63991 2.8125,3.15625 4.30632,3.2384 7.024,4.13069 32.39927,5.1875 9.35,0.3894 16.14961,0.0727 18,-0.0625 4.92788,-0.36015 4.8514,-2.46803 8.875,-15.34375 4.20565,-13.45829 4.73164,-17 2.5625,-17 z m 90.4375,0.5 c -2.46957,0 -2.62941,1.93901 -0.625,7.75 1.08967,3.15905 3.1665,9.65798 4.625,14.4375 1.45849,4.77953 2.10108,8.13015 3.84375,9.1875 2.87091,1.7419 47.02193,-1.78142 50.23668,-3.5019 2.70188,-1.29772 4.59327,-4.03921 6.12939,-5.90435 2.98503,-6.10286 4.33693,-8.91254 6.27427,-15.87151 0.60663,-3.32725 1.1535,-4.09724 -0.64927,-4.09724 -1.49372,0 -2.75034,0.86074 -3.22321,3.25 -0.78527,3.9677 -3.21285,8.38948 -5.59822,12.99554 -0.41745,0.80608 -2.99776,4.11528 -4.79464,4.86607 -3.86015,1.61287 -28.06327,4.09802 -39.02237,4.37946 0,0 -5.96308,-0.21291 -7.10268,-0.99107 -1.1396,-0.77816 -2.84375,-9 -2.84375,-9 -4.63164,-14.66243 -5.81949,-17.5 -7.25,-17.5 z m -46.84375,0.71875 c 14.49685,0.018 31.00565,1.01102 33.4375,2.3125 1.05894,0.56673 2.50779,2.25381 3.25,3.75 2.31436,4.66541 5.15007,19.71706 4.9375,23.375 -0.13064,2.24814 -1.97894,4.7462 -6.4375,6.15625 -2.0798,0.65775 -11.07186,1.99477 -29.125,2.21875 -37.40216,0.46404 -45.09375,-2.17481 -45.09375,-9.875 0,-4.48477 3.8754,-21.32372 5.5,-23.28125 2.22173,-2.67702 5.70799,-3.42952 20.3125,-4.34375 3.79737,-0.23771 8.38647,-0.3185 13.21875,-0.3125 z"
       id="path5428"
       inkscape:connector-curvature="0"
       sodipodi:nodetypes="ssssscsccsssssscssccccssccsscssssssssssssscssscssscssssssscccssscczssscssssssssc" />
  </g>
</svg>
