<?xml version="1.0" encoding="UTF-8" standalone="no"?>
<!-- Created with Inkscape (http://www.inkscape.org/) -->

<svg
   xmlns:dc="http://purl.org/dc/elements/1.1/"
   xmlns:cc="http://creativecommons.org/ns#"
   xmlns:rdf="http://www.w3.org/1999/02/22-rdf-syntax-ns#"
   xmlns:svg="http://www.w3.org/2000/svg"
   xmlns="http://www.w3.org/2000/svg"
   xmlns:sodipodi="http://sodipodi.sourceforge.net/DTD/sodipodi-0.dtd"
   xmlns:inkscape="http://www.inkscape.org/namespaces/inkscape"
   width="210mm"
   height="297mm"
   id="svg2"
   version="1.1"
   inkscape:version="0.48.4 r9939"
   sodipodi:docname="Zeichnung1.svg">
  <defs
     id="defs4" />
  <sodipodi:namedview
     id="base"
     pagecolor="#ffffff"
     bordercolor="#666666"
     borderopacity="1.0"
     inkscape:pageopacity="0.0"
     inkscape:pageshadow="2"
     inkscape:zoom="1.4"
     inkscape:cx="314.18782"
     inkscape:cy="770.6553"
     inkscape:document-units="px"
     inkscape:current-layer="flowRoot5351"
     showgrid="false"
     inkscape:window-width="1920"
     inkscape:window-height="1017"
     inkscape:window-x="-8"
     inkscape:window-y="-8"
     inkscape:window-maximized="1" />
  <metadata
     id="metadata7">
    <rdf:RDF>
      <cc:Work
         rdf:about="">
        <dc:format>image/svg+xml</dc:format>
        <dc:type
           rdf:resource="http://purl.org/dc/dcmitype/StillImage" />
      </cc:Work>
    </rdf:RDF>
  </metadata>
  <g
     inkscape:label="Ebene 1"
     inkscape:groupmode="layer"
     id="layer1">
    <path
       style="fill:none;stroke:#000000;stroke-width:1px;stroke-linecap:butt;stroke-linejoin:miter;stroke-opacity:1"
       d="m 70.85714,23.75758 7.41707,-4e-4 -0.0217,61.28103 -7.58295,-0.0613 c 0,0 -4.31858,-7.87232 -4.20225,-31.18126 0.11634,-23.30894 4.38983,-30.03809 4.38983,-30.03809 z"
       id="path2996"
       inkscape:connector-curvature="0"
       sodipodi:nodetypes="cccczc" />
    <path
       style="fill:none;stroke:#000000;stroke-width:1px;stroke-linecap:butt;stroke-linejoin:miter;stroke-opacity:1"
       d="m 323.69842,84.98622 -7.41707,4e-4 0.0217,-61.28103 7.58295,0.0613 c 0,0 4.31858,7.87232 4.20225,31.18126 -0.11634,23.30894 -4.38983,30.03809 -4.38983,30.03809 z"
       id="path2996-1"
       inkscape:connector-curvature="0"
       sodipodi:nodetypes="cccczc" />
    <rect
       style="fill:none;stroke:#000000;stroke-width:0.95038885px;stroke-linecap:butt;stroke-linejoin:miter;stroke-opacity:1"
       id="rect3016"
       width="4.2164903"
       height="61.542648"
       x="308.20294"
       y="23.466599" />
    <rect
       style="fill:none;stroke:#000000;stroke-width:0.95038885px;stroke-linecap:butt;stroke-linejoin:miter;stroke-opacity:1"
       id="rect3016-7"
       width="4.2164903"
       height="61.542648"
       x="82.157494"
       y="23.383133" />
    <path
       style="fill:none;stroke:#000000;stroke-width:1px;stroke-linecap:butt;stroke-linejoin:miter;stroke-opacity:1"
       d="m 200.71875,9.03125 -1.90625,6.3125 c -0.57072,-0.024 -1.14191,-0.0625 -1.71875,-0.0625 -21.05408,0 -38.17794,16.19232 -38.84375,36.40625 l -35,-8.375 0,-4.40625 c 0,0 1.34862,-2.87475 4.40625,-4.21875 3.05763,-1.344 6.84375,-0.71875 6.84375,-0.71875 l 0,-10.09375 -44.0625,-0.125 0,61.25 43.8125,0 0,-10.375 c 0,0 -3.97763,0.37416 -7.15625,-2.25 -3.17863,-2.62417 -3.71875,-4.8125 -3.71875,-4.8125 l 0,-9.21875 c 0,0 15.65724,4.6756 18,5.5 2.34276,0.8244 8.21609,2.91732 10.4375,3.875 6.29366,2.71328 12.18876,5.76423 13,6.1875 0.008,0.0118 0.87531,1.18741 0.88357,1.19924 0,0 4.93286,6.27181 7.14768,7.76951 l -2.375,6.12054 23.4375,7.62946 1.875,-6.125 c 0.43679,0.014 0.87217,0.0312 1.3125,0.0312 20.68391,0 37.5929,-15.62796 38.8125,-35.34375 l 35.03125,8.34375 0,6.0625 c 0,0 -1.31737,2.87475 -4.375,4.21875 -3.05763,1.344 -6.21875,0.96875 -6.21875,0.96875 l 0,10.09375 44.0625,0.125 0,-61.25 -43.8125,0 0,10.375 c 0,0 3.97763,-0.40541 7.15625,2.21875 3.17863,2.62417 3.71875,4.84375 3.71875,4.84375 l 0,7.5625 c 0,0 -15.65724,-4.6756 -18,-5.5 -2.34276,-0.8244 -8.21609,-2.88607 -10.4375,-3.84375 -6.51976,-2.81075 -13.162,-7.12496 -13.59375,-7.40625 -2.31882,-3.35012 -5.18818,-6.30921 -8.46875,-8.78125 l 0.53125,0.125 2.5625,-6.89286 z"
       id="path3804"
       inkscape:connector-curvature="0"
       sodipodi:nodetypes="ccscccsccccccsccssccccccscccsccccccsccssccccc" />
    <path
       sodipodi:type="arc"
       style="fill:none;stroke:#000000;stroke-opacity:1"
       id="path5278-8"
       sodipodi:cx="259.60919"
       sodipodi:cy="211.15765"
       sodipodi:rx="37.880722"
       sodipodi:ry="37.880722"
       d="m 297.48991,211.15765 a 37.880722,37.880722 0 1 1 -75.76144,0 37.880722,37.880722 0 1 1 75.76144,0 z"
       transform="matrix(0.9212172,0,0,0.89455053,-41.844172,-136.18658)" />
    <path
       sodipodi:type="arc"
       style="fill:none;stroke:#000000;stroke-opacity:1"
       id="path5318"
       sodipodi:cx="207.67857"
       sodipodi:cy="251.46933"
       sodipodi:rx="7.6785712"
       sodipodi:ry="7.6785712"
       d="m 215.35714,251.46933 a 7.6785712,7.6785712 0 1 1 -15.35714,0 7.6785712,7.6785712 0 1 1 15.35714,0 z"
       transform="translate(-104.53571,-197.42857)" />
    <path
       sodipodi:type="arc"
       style="fill:none;stroke:#000000;stroke-opacity:1"
       id="path5318-2"
       sodipodi:cx="207.67857"
       sodipodi:cy="251.46933"
       sodipodi:rx="7.6785712"
       sodipodi:ry="7.6785712"
       d="m 215.35714,251.46933 a 7.6785712,7.6785712 0 1 1 -15.35714,0 7.6785712,7.6785712 0 1 1 15.35714,0 z"
       transform="translate(83.74999,-197.39286)" />
    <path
       sodipodi:type="arc"
       style="fill:none;stroke:#000000;stroke-opacity:1"
       id="path5338"
       sodipodi:cx="303.39285"
       sodipodi:cy="255.93361"
       sodipodi:rx="19.642857"
       sodipodi:ry="19.642857"
       d="m 323.03571,255.93361 a 19.642857,19.642857 0 1 1 -39.28571,0 19.642857,19.642857 0 1 1 39.28571,0 z"
       transform="translate(-106.17857,-202.53571)" />
    <flowRoot
       xml:space="preserve"
       id="flowRoot5343"
       style="fill:black;stroke:none;stroke-opacity:1;stroke-width:1px;stroke-linejoin:miter;stroke-linecap:butt;fill-opacity:1;font-family:Sans;font-style:normal;font-weight:normal;font-size:40px;line-height:125%;letter-spacing:0px;word-spacing:0px"><flowRegion
         id="flowRegion5345"><rect
           id="rect5347"
           width="575.78693"
           height="105.05586"
           x="97.984795"
           y="330.10312" /></flowRegion><flowPara
         id="flowPara5349"></flowPara></flowRoot>    <g
       transform="translate(36,10)"
       style="font-size:40px;font-style:normal;font-variant:normal;font-weight:normal;font-stretch:normal;line-height:125%;letter-spacing:0px;word-spacing:0px;fill:#000000;fill-opacity:1;stroke:none;font-family:MingLiU;-inkscape-font-specification:MingLiU"
       id="flowRoot5351">
      <path
         d="m -7.410156,103.94519 -7.988282,0 0,22.87109 -6.328125,0 0,-22.87109 -7.949218,0 0,-5.13672 22.265625,0 z"
         style="font-weight:bold;font-family:Myanmar Text;-inkscape-font-specification:Myanmar Text Bold"
         id="path5360"
         inkscape:connector-curvature="0" />
      <path
         d="m 20.59766,126.81628 -6.32813,0 0,-11.40625 -11.60156,0 0,11.40625 -6.308595,0 0,-28.00781 6.308595,0 0,11.17188 11.60156,0 0,-11.17188 6.32813,0 z"
         style="font-weight:bold;font-family:Myanmar Text;-inkscape-font-specification:Myanmar Text Bold"
         id="path5362"
         inkscape:connector-curvature="0" />
      <path
         d="m 43.78125,126.81628 -16.79688,0 0,-28.00781 16.15235,0 0,5.13672 -9.84375,0 0,6.23047 9.16015,0 0,5.11719 -9.16015,0 0,6.40625 10.48828,0 z"
         style="font-weight:bold;font-family:Myanmar Text;-inkscape-font-specification:Myanmar Text Bold"
         id="path5364"
         inkscape:connector-curvature="0" />
      <path
         d="m 95.96875,98.80847 -7.40234,28.00781 -6.99219,0 -4.64844,-17.96875 c -0.24742,-0.93748 -0.39715,-1.98565 -0.44922,-3.14453 l -0.0781,0 c -0.11721,1.27606 -0.28648,2.32424 -0.50782,3.14453 l -4.76562,17.96875 -7.28516,0 -7.36328,-28.00781 6.89453,0 3.94532,18.65234 c 0.16926,0.79428 0.29295,1.86199 0.37109,3.20313 l 0.11719,0 c 0.0521,-1.0026 0.24087,-2.09635 0.5664,-3.28125 l 5.07813,-18.57422 6.75781,0 4.58984,18.80859 c 0.16925,0.69012 0.31899,1.69272 0.44922,3.00782 l 0.0781,0 c 0.0521,-1.02864 0.18877,-2.07031 0.41015,-3.125 l 3.86719,-18.69141 z"
         style="font-weight:bold;font-family:Myanmar Text;-inkscape-font-specification:Myanmar Text Bold"
         id="path5366"
         inkscape:connector-curvature="0" />
      <path
         d="m 111.39844,127.30456 c -4.01043,0 -7.27866,-1.30533 -9.80469,-3.91601 -2.52604,-2.61067 -3.78906,-6.01236 -3.78906,-10.20508 0,-4.42706 1.28255,-8.00779 3.84765,-10.74219 2.5651,-2.73434 5.96353,-4.10153 10.19532,-4.10156 3.99737,3e-5 7.22979,1.30862 9.69726,3.92578 2.46742,2.61721 3.70114,6.06773 3.70117,10.35156 -3e-5,4.40106 -1.27932,7.94923 -3.83789,10.64454 -2.55861,2.69531 -5.8952,4.04296 -10.00976,4.04296 z m 0.27343,-23.53515 c -2.21355,2e-5 -3.97136,0.8301 -5.27343,2.49023 -1.30209,1.66018 -1.95314,3.85744 -1.95313,6.5918 -1e-5,2.77345 0.65104,4.96746 1.95313,6.58203 1.30207,1.61459 3.0078,2.42188 5.11718,2.42188 2.17447,0 3.89973,-0.7845 5.17579,-2.35352 1.27602,-1.569 1.91404,-3.74673 1.91406,-6.5332 -2e-5,-2.90363 -0.61851,-5.16274 -1.85547,-6.77735 -1.237,-1.61456 -2.9297,-2.42185 -5.07813,-2.42187 z"
         style="font-weight:bold;font-family:Myanmar Text;-inkscape-font-specification:Myanmar Text Bold"
         id="path5368"
         inkscape:connector-curvature="0" />
      <path
         d="m 153.37109,126.81628 -7.24609,0 -4.35547,-7.20703 c -0.32553,-0.54687 -0.63803,-1.03515 -0.9375,-1.46484 -0.29949,-0.42968 -0.60223,-0.79752 -0.9082,-1.10352 -0.306,-0.30598 -0.62501,-0.54035 -0.95703,-0.70312 -0.33205,-0.16275 -0.69337,-0.24413 -1.08399,-0.24414 l -1.69922,0 0,10.72265 -6.30859,0 0,-28.00781 10,0 c 6.79685,3e-5 10.19529,2.53909 10.19531,7.61719 -2e-5,0.97658 -0.14976,1.87827 -0.44922,2.70508 -0.2995,0.82684 -0.72267,1.57228 -1.26953,2.23632 -0.54689,0.66408 -1.2077,1.237 -1.98242,1.71875 -0.77476,0.48179 -1.63739,0.85939 -2.58789,1.13282 l 0,0.0781 c 0.41665,0.13022 0.82029,0.34181 1.21094,0.63477 0.3906,0.29298 0.76821,0.63477 1.13281,1.02539 0.36456,0.39063 0.71287,0.81055 1.04492,1.25976 0.33201,0.44923 0.63475,0.88868 0.9082,1.31836 z m -17.1875,-23.28125 0,7.79297 2.73438,0 c 1.35415,2e-5 2.44139,-0.39061 3.26172,-1.17187 0.83331,-0.79426 1.24998,-1.77733 1.25,-2.94922 -2e-5,-2.4479 -1.46486,-3.67185 -4.39453,-3.67188 z"
         style="font-weight:bold;font-family:Myanmar Text;-inkscape-font-specification:Myanmar Text Bold"
         id="path5370"
         inkscape:connector-curvature="0" />
      <path
         d="m 172.64844,126.81628 -16.67969,0 0,-28.00781 6.30859,0 0,22.89063 10.3711,0 z"
         style="font-weight:bold;font-family:Myanmar Text;-inkscape-font-specification:Myanmar Text Bold"
         id="path5372"
         inkscape:connector-curvature="0" />
      <path
         d="m 176.4375,126.81628 0,-28.00781 9.92187,0 c 9.9479,3e-5 14.92185,4.55081 14.92188,13.65234 -3e-5,4.36199 -1.35745,7.84506 -4.07227,10.44922 -2.71486,2.60417 -6.33139,3.90625 -10.84961,3.90625 z m 6.30859,-22.87109 0,17.75391 3.125,0 c 2.73436,0 4.87954,-0.82031 6.43555,-2.46094 1.55597,-1.64062 2.33396,-3.87369 2.33398,-6.69922 -2e-5,-2.66925 -0.7715,-4.76886 -2.31445,-6.29883 -1.54298,-1.52992 -3.7077,-2.2949 -6.49414,-2.29492 z"
         style="font-weight:bold;font-family:Myanmar Text;-inkscape-font-specification:Myanmar Text Bold"
         id="path5374"
         inkscape:connector-curvature="0" />
      <path
         d="m 225.63672,98.80847 0,4.88281 -2.34375,0 0,18.24219 2.34375,0 0,4.88281 -10.9961,0 0,-4.88281 2.34375,0 0,-18.24219 -2.34375,0 0,-4.88281 z"
         style="font-weight:bold;font-family:Myanmar Text;-inkscape-font-specification:Myanmar Text Bold"
         id="path5376"
         inkscape:connector-curvature="0" />
      <path
         d="m 228.35156,125.74206 0,-6.25 c 1.13281,0.95053 2.36328,1.66342 3.69141,2.13868 1.32812,0.47526 2.66926,0.71289 4.02344,0.71289 0.79426,0 1.48762,-0.0716 2.08007,-0.21485 0.59244,-0.14322 1.08723,-0.34179 1.48438,-0.5957 0.39712,-0.2539 0.69334,-0.55338 0.88867,-0.89844 0.1953,-0.34504 0.29296,-0.71939 0.29297,-1.12304 -1e-5,-0.54687 -0.15626,-1.03515 -0.46875,-1.46485 -0.31251,-0.42968 -0.73895,-0.82681 -1.2793,-1.1914 -0.54037,-0.36458 -1.18165,-0.71614 -1.92383,-1.05469 -0.74219,-0.33853 -1.54297,-0.68358 -2.40234,-1.03516 -2.1875,-0.91144 -3.81836,-2.02472 -4.89258,-3.33984 -1.07422,-1.31509 -1.61133,-2.90363 -1.61133,-4.76563 0,-1.45831 0.29297,-2.71156 0.87891,-3.75976 0.58594,-1.04815 1.38346,-1.91078 2.39258,-2.58789 1.00911,-0.67706 2.17773,-1.17511 3.50586,-1.49414 1.32811,-0.31899 2.73436,-0.47849 4.21875,-0.47852 1.45832,3e-5 2.75063,0.0879 3.87695,0.26367 1.12629,0.17581 2.1647,0.44599 3.11524,0.81055 l 0,5.83984 c -0.46877,-0.3255 -0.97984,-0.61195 -1.53321,-0.85937 -0.5534,-0.24738 -1.12306,-0.45245 -1.70898,-0.61524 -0.58595,-0.16273 -1.16864,-0.28318 -1.74805,-0.36132 -0.57944,-0.0781 -1.12957,-0.11717 -1.65039,-0.11719 -0.71616,2e-5 -1.3672,0.0684 -1.95312,0.20508 -0.58595,0.13674 -1.08074,0.3288 -1.48438,0.57617 -0.40365,0.24742 -0.71615,0.54364 -0.9375,0.88867 -0.22136,0.34507 -0.33204,0.73244 -0.33203,1.16211 -1e-5,0.46877 0.12369,0.88869 0.37109,1.25976 0.24739,0.37112 0.59895,0.72268 1.05469,1.05469 0.45572,0.33205 1.0091,0.65757 1.66016,0.97656 0.65103,0.31903 1.3867,0.64781 2.20703,0.98633 1.11978,0.46877 2.12563,0.96682 3.01758,1.49414 0.89191,0.52736 1.65688,1.12306 2.29492,1.78711 0.638,0.66408 1.12628,1.42254 1.46484,2.27539 0.33852,0.85288 0.50779,1.84572 0.50781,2.97852 -2e-5,1.56251 -0.29624,2.87435 -0.88867,3.93555 -0.59246,1.0612 -1.3965,1.92057 -2.41211,2.57812 -1.01564,0.65755 -2.19728,1.12956 -3.54492,1.41602 -1.34767,0.28645 -2.77019,0.42968 -4.26758,0.42968 -1.53646,0 -2.99805,-0.1302 -4.38476,-0.39062 -1.38672,-0.26042 -2.5879,-0.65104 -3.60352,-1.17188 z"
         style="font-weight:bold;font-family:Myanmar Text;-inkscape-font-specification:Myanmar Text Bold"
         id="path5378"
         inkscape:connector-curvature="0" />
      <path
         d="m 279.26953,103.94519 -9.88281,0 0,6.875 9.08203,0 0,5.11719 -9.08203,0 0,10.8789 -6.3086,0 0,-28.00781 16.19141,0 z"
         style="font-weight:bold;font-family:Myanmar Text;-inkscape-font-specification:Myanmar Text Bold"
         id="path5380"
         inkscape:connector-curvature="0" />
      <path
         d="m 300.53906,126.81628 -16.67969,0 0,-28.00781 6.3086,0 0,22.89063 10.37109,0 z"
         style="font-weight:bold;font-family:Myanmar Text;-inkscape-font-specification:Myanmar Text Bold"
         id="path5382"
         inkscape:connector-curvature="0" />
      <path
         d="m 328.95703,126.81628 -6.875,0 -1.99219,-6.23047 -9.96093,0 -1.97266,6.23047 -6.83594,0 10.19531,-28.00781 7.48047,0 z m -10.3125,-11.07422 -3.00781,-9.41406 c -0.22137,-0.7031 -0.37762,-1.54294 -0.46875,-2.51953 l -0.15625,0 c -0.0651,0.82034 -0.22788,1.63414 -0.48828,2.44141 l -3.04688,9.49218 z"
         style="font-weight:bold;font-family:Myanmar Text;-inkscape-font-specification:Myanmar Text Bold"
         id="path5384"
         inkscape:connector-curvature="0" />
      <path
         d="m 352.12109,103.94519 -7.98828,0 0,22.87109 -6.32812,0 0,-22.87109 -7.94922,0 0,-5.13672 22.26562,0 z"
         style="font-weight:bold;font-family:Myanmar Text;-inkscape-font-specification:Myanmar Text Bold"
         id="path5386"
         inkscape:connector-curvature="0" />
    </g>
  </g>
</svg>
