<?xml version="1.0" encoding="utf-8"?>
<!-- Generator: Adobe Illustrator 15.1.0, SVG Export Plug-In . SVG Version: 6.00 Build 0)  -->
<!DOCTYPE svg PUBLIC "-//W3C//DTD SVG 1.1//EN" "http://www.w3.org/Graphics/SVG/1.1/DTD/svg11.dtd">
<svg version="1.1" id="Ebene_1" xmlns="http://www.w3.org/2000/svg" xmlns:xlink="http://www.w3.org/1999/xlink" x="0px" y="0px"
	 width="150px" height="310px" viewBox="0 0 150 310" enable-background="new 0 0 150 310" xml:space="preserve">
<g>
	<path fill-rule="evenodd" clip-rule="evenodd" fill="#FFFFFF" d="M80.017,15c-3.333,0-6.667,0-10,0c0,6.667,0,13.333,0,20
		c6.667,0,13.333,0,20,0c0-10,0-20,0-30c-3.333,0-6.667,0-10,0C80.017,8.333,80.017,11.667,80.017,15z M30.017,55
		c3.333,0,6.667,0,10,0c0-10,0-20,0-30c-3.333,0-6.667,0-10,0C30.017,35,30.017,45,30.017,55z M120.017,55c3.333,0,6.667,0,10,0
		c0-10,0-20,0-30c-3.333,0-6.667,0-10,0C120.017,35,120.017,45,120.017,55z M50.017,45c0,3.333,0,6.667,0,10c20,0,40,0,60,0
		c0-3.333,0-6.667,0-10C90.017,45,70.017,45,50.017,45z M10.017,75c3.04,0.627,8.614-1.28,10,1c0,3,0,6,0,9c3.333,0,6.667,0,10,0
		c0-6.667,0-13.333,0-20c-6.667,0-13.333,0-20,0C10.017,68.333,10.017,71.667,10.017,75z M50.017,85c3.04,0.627,8.614-1.28,10,1
		c0,3,0,6,0,9c13.333,0,26.667,0,40,0c0-3.333,0-6.667,0-10c3.333,0,6.667,0,10,0c0.627-3.04-1.28-8.614,1-10c3,0,6,0,9,0
		c0-3.333,0-6.667,0-10c-3.333,0-6.667,0-10,0c0,3.333,0,6.667,0,10c-3.333,0-6.667,0-10,0c0,3.333,0,6.667,0,10
		c-3.039-0.627-8.613,1.28-10-1c0-3,0-6,0-9c-6.667,0-13.333,0-20,0c0,3.333,0,6.667,0,10c-3.04-0.627-8.614,1.28-10-1c0-3,0-6,0-9
		c-3.04-0.627-8.614,1.28-10-1c0-3,0-6,0-9c-3.333,0-6.667,0-10,0c0,3.333,0,6.667,0,10c3.333,0,6.667,0,10,0
		C50.017,78.333,50.017,81.667,50.017,85z M20.017,105c3.333,0,6.667,0,10,0c0-3.333,0-6.667,0-10c-3.333,0-6.667,0-10,0
		C20.017,98.333,20.017,101.667,20.017,105z M70.017,125c6.667,0,13.333,0,20,0c0-3.333,0-6.667,0-10c-6.667,0-13.333,0-20,0
		c0-3.333,0-6.667,0-10c-3.333,0-6.667,0-10,0c0,3.333,0,6.667,0,10c3.333,0,6.667,0,10,0C70.017,118.333,70.017,121.667,70.017,125
		z M100.017,145c6.667,0,13.333,0,20,0c0-6.667,0-13.333,0-20c-6.667,0-13.333,0-20,0C100.017,131.667,100.017,138.333,100.017,145z
		 M110.017,195c6.667,0,13.333,0,20,0c0-6.667,0-13.333,0-20c-6.667,0-13.333,0-20,0C110.017,181.667,110.017,188.333,110.017,195z
		 M130.017,305c3.333,0,6.667,0,10,0c0-3.333,0-6.667,0-10c-3.039-0.627-8.613,1.28-10-1c0-29.667,0-59.333,0-89
		c-6.667,0-13.333,0-20,0c0,30,0,60,0,90c-3.333,0-6.667,0-10,0c0,3.333,0,6.667,0,10c3.333,0,6.667,0,10,0
		c0.627-3.039-1.28-8.613,1-10C120.056,295.628,134.377,290.973,130.017,305z"/>
	<path fill-rule="evenodd" clip-rule="evenodd" d="M80.017,5c3.333,0,6.667,0,10,0c0,10,0,20,0,30c-6.667,0-13.333,0-20,0
		c0-6.667,0-13.333,0-20c3.333,0,6.667,0,10,0C80.017,11.667,80.017,8.333,80.017,5z"/>
	<path fill-rule="evenodd" clip-rule="evenodd" d="M30.017,25c3.333,0,6.667,0,10,0c0,10,0,20,0,30c-3.333,0-6.667,0-10,0
		C30.017,45,30.017,35,30.017,25z"/>
	<path fill-rule="evenodd" clip-rule="evenodd" d="M120.017,25c3.333,0,6.667,0,10,0c0,10,0,20,0,30c-3.333,0-6.667,0-10,0
		C120.017,45,120.017,35,120.017,25z"/>
	<path fill-rule="evenodd" clip-rule="evenodd" d="M110.017,45c0,3.333,0,6.667,0,10c-20,0-40,0-60,0c0-3.333,0-6.667,0-10
		C70.017,45,90.017,45,110.017,45z"/>
	<path fill-rule="evenodd" clip-rule="evenodd" d="M10.017,65c6.667,0,13.333,0,20,0c0,6.667,0,13.333,0,20c-3.333,0-6.667,0-10,0
		c0-3,0-6,0-9c-1.386-2.28-6.96-0.373-10-1C10.017,71.667,10.017,68.333,10.017,65z"/>
	<path fill-rule="evenodd" clip-rule="evenodd" d="M20.017,95c3.333,0,6.667,0,10,0c0,3.333,0,6.667,0,10c-3.333,0-6.667,0-10,0
		C20.017,101.667,20.017,98.333,20.017,95z"/>
	<path fill-rule="evenodd" clip-rule="evenodd" d="M100.017,125c6.667,0,13.333,0,20,0c0,6.667,0,13.333,0,20
		c-6.667,0-13.333,0-20,0C100.017,138.333,100.017,131.667,100.017,125z"/>
	<path fill-rule="evenodd" clip-rule="evenodd" d="M110.017,175c6.667,0,13.333,0,20,0c0,6.667,0,13.333,0,20
		c-6.667,0-13.333,0-20,0C110.017,188.333,110.017,181.667,110.017,175z"/>
	<path fill-rule="evenodd" clip-rule="evenodd" d="M50.017,75c-3.333,0-6.667,0-10,0c0-3.333,0-6.667,0-10c3.333,0,6.667,0,10,0
		c0,3,0,6,0,9c1.386,2.28,6.96,0.373,10,1c0,3,0,6,0,9c1.386,2.28,6.96,0.373,10,1c0-3.333,0-6.667,0-10c6.667,0,13.333,0,20,0
		c0,3,0,6,0,9c1.387,2.28,6.961,0.373,10,1c0-3.333,0-6.667,0-10c3.333,0,6.667,0,10,0c0-3.333,0-6.667,0-10c3.333,0,6.667,0,10,0
		c0,3.333,0,6.667,0,10c-3,0-6,0-9,0c-2.28,1.386-0.373,6.96-1,10c-3.333,0-6.667,0-10,0c0,3.333,0,6.667,0,10
		c-13.333,0-26.667,0-40,0c0-3,0-6,0-9c-1.386-2.28-6.96-0.373-10-1C50.017,81.667,50.017,78.333,50.017,75z"/>
	<path fill-rule="evenodd" clip-rule="evenodd" d="M70.017,115c-3.333,0-6.667,0-10,0c0-3.333,0-6.667,0-10c3.333,0,6.667,0,10,0
		C70.017,108.333,70.017,111.667,70.017,115c6.667,0,13.333,0,20,0c0,3.333,0,6.667,0,10c-6.667,0-13.333,0-20,0
		C70.017,121.667,70.017,118.333,70.017,115z"/>
	<path fill-rule="evenodd" clip-rule="evenodd" d="M111.017,295c-2.28,1.387-0.373,6.961-1,10c-3.333,0-6.667,0-10,0
		c0-3.333,0-6.667,0-10c3.333,0,6.667,0,10,0c0-30,0-60,0-90c6.667,0,13.333,0,20,0c0,29.667,0,59.333,0,89
		c1.387,2.28,6.961,0.373,10,1c0,3.333,0,6.667,0,10c-3.333,0-6.667,0-10,0C134.377,290.973,120.056,295.628,111.017,295z"/>
</g>
</svg>
