<?xml version="1.0" encoding="utf-8"?>
<!-- Generator: Adobe Illustrator 15.1.0, SVG Export Plug-In . SVG Version: 6.00 Build 0)  -->
<!DOCTYPE svg PUBLIC "-//W3C//DTD SVG 1.1//EN" "http://www.w3.org/Graphics/SVG/1.1/DTD/svg11.dtd">
<svg version="1.1" id="Ebene_1" xmlns="http://www.w3.org/2000/svg" xmlns:xlink="http://www.w3.org/1999/xlink" x="0px" y="0px"
	 width="279.487px" height="139.316px" viewBox="0 0 279.487 139.316" enable-background="new 0 0 279.487 139.316"
	 xml:space="preserve">
<g>
	<path fill-rule="evenodd" clip-rule="evenodd" fill="#FFFFFF" d="M204.109,15.085c6.667,0,13.333,0,20,0c0,3.333,0,6.667,0,10
		c10,0,20,0,30,0c0-3.333,0-6.667,0-10c-6.667,0-13.333,0-20,0c0-3.333,0-6.667,0-10c-10,0-20,0-30,0
		C204.109,8.419,204.109,11.752,204.109,15.085z M174.109,25.085c3.333,0,6.667,0,10,0c0,3.333,0,6.667,0,10
		c3.039,0.627,8.613-1.28,10,1c0,3,0,6,0,9c6.667,0,13.333,0,20,0c0-3.333,0-6.667,0-10c-3.333,0-6.667,0-10,0c0-3.333,0-6.667,0-10
		c-3.039-0.627-8.613,1.28-10-1c0-3,0-6,0-9c-6.667,0-13.333,0-20,0C174.109,18.419,174.109,21.752,174.109,25.085z M234.109,55.085
		c-3.333,0-6.667,0-10,0c0,10,0,20,0,30c3.333,0,6.667,0,10,0c0-3.333,0-6.667,0-10c3.333,0,6.667,0,10,0c0-13.333,0-26.667,0-40
		c-3.333,0-6.667,0-10,0C234.109,41.752,234.109,48.419,234.109,55.085z M184.109,85.085c10,0,20,0,30,0c0-6.667,0-13.333,0-20
		c-3.039-0.627-8.613,1.28-10-1c0-3,0-6,0-9c-3.333,0-6.667,0-10,0c0,6.667,0,13.333,0,20c-3.039-0.627-8.613,1.28-10-1
		c0-6.333,0-12.667,0-19c-3.333,0-6.667,0-10,0c0,3.333,0,6.667,0,10c-3.333,0-6.667,0-10,0c0,3.333,0,6.667,0,10
		c6.667,0,13.333,0,20,0C184.109,78.419,184.109,81.752,184.109,85.085z M4.109,95.085c0,6.667,0,13.333,0,20c30,0,60,0,90,0
		c0-6.667,0-13.333,0-20C64.109,95.085,34.109,95.085,4.109,95.085z M104.109,115.085c6.667,0,13.333,0,20,0c0-6.667,0-13.333,0-20
		c-6.667,0-13.333,0-20,0C104.109,101.752,104.109,108.419,104.109,115.085z M154.109,115.085c6.667,0,13.333,0,20,0
		c0-6.667,0-13.333,0-20c-6.667,0-13.333,0-20,0C154.109,101.752,154.109,108.419,154.109,115.085z M233.109,105.085
		c-6.333,0-12.667,0-19,0c0,3.333,0,6.667,0,10c6.667,0,13.333,0,20,0c0.627-3.04-1.28-8.614,1-10c3,0,6,0,9,0c0-3.333,0-6.667,0-10
		c-3.333,0-6.667,0-10,0C233.482,98.125,235.39,103.699,233.109,105.085z M264.109,125.085c-3.333,0-6.667,0-10,0
		c0,3.333,0,6.667,0,10c6.667,0,13.333,0,20,0c0-10,0-20,0-30c-3.333,0-6.667,0-10,0
		C264.109,111.752,264.109,118.419,264.109,125.085z M184.109,135.085c10,0,20,0,30,0c0-3.333,0-6.667,0-10c-10,0-20,0-30,0
		C184.109,128.419,184.109,131.752,184.109,135.085z"/>
	<path fill-rule="evenodd" clip-rule="evenodd" d="M204.109,5.085c10,0,20,0,30,0c0,3.333,0,6.667,0,10c6.667,0,13.333,0,20,0
		c0,3.333,0,6.667,0,10c-10,0-20,0-30,0c0-3.333,0-6.667,0-10c-6.667,0-13.333,0-20,0C204.109,11.752,204.109,8.419,204.109,5.085z"
		/>
	<path fill-rule="evenodd" clip-rule="evenodd" d="M174.109,15.085c6.667,0,13.333,0,20,0c0,3,0,6,0,9c1.387,2.28,6.961,0.373,10,1
		c0,3.333,0,6.667,0,10c3.333,0,6.667,0,10,0c0,3.333,0,6.667,0,10c-6.667,0-13.333,0-20,0c0-3,0-6,0-9
		c-1.387-2.28-6.961-0.373-10-1c0-3.333,0-6.667,0-10c-3.333,0-6.667,0-10,0C174.109,21.752,174.109,18.419,174.109,15.085z"/>
	<path fill-rule="evenodd" clip-rule="evenodd" d="M234.109,35.085c3.333,0,6.667,0,10,0c0,13.333,0,26.667,0,40
		c-3.333,0-6.667,0-10,0c0,3.333,0,6.667,0,10c-3.333,0-6.667,0-10,0c0-10,0-20,0-30c3.333,0,6.667,0,10,0
		C234.109,48.419,234.109,41.752,234.109,35.085z"/>
	<path fill-rule="evenodd" clip-rule="evenodd" d="M94.109,95.085c0,6.667,0,13.333,0,20c-30,0-60,0-90,0c0-6.667,0-13.333,0-20
		C34.109,95.085,64.109,95.085,94.109,95.085z"/>
	<path fill-rule="evenodd" clip-rule="evenodd" d="M104.109,95.085c6.667,0,13.333,0,20,0c0,6.667,0,13.333,0,20
		c-6.667,0-13.333,0-20,0C104.109,108.419,104.109,101.752,104.109,95.085z"/>
	<path fill-rule="evenodd" clip-rule="evenodd" d="M154.109,95.085c6.667,0,13.333,0,20,0c0,6.667,0,13.333,0,20
		c-6.667,0-13.333,0-20,0C154.109,108.419,154.109,101.752,154.109,95.085z"/>
	<path fill-rule="evenodd" clip-rule="evenodd" d="M264.109,105.085c3.333,0,6.667,0,10,0c0,10,0,20,0,30c-6.667,0-13.333,0-20,0
		c0-3.333,0-6.667,0-10c3.333,0,6.667,0,10,0C264.109,118.419,264.109,111.752,264.109,105.085z"/>
	<path fill-rule="evenodd" clip-rule="evenodd" d="M184.109,125.085c10,0,20,0,30,0c0,3.333,0,6.667,0,10c-10,0-20,0-30,0
		C184.109,131.752,184.109,128.419,184.109,125.085z"/>
	<path fill-rule="evenodd" clip-rule="evenodd" d="M184.109,75.085c-6.667,0-13.333,0-20,0c0-3.333,0-6.667,0-10
		c3.333,0,6.667,0,10,0c0-3.333,0-6.667,0-10c3.333,0,6.667,0,10,0c0,6.333,0,12.667,0,19c1.387,2.28,6.961,0.373,10,1
		c0-6.667,0-13.333,0-20c3.333,0,6.667,0,10,0c0,3,0,6,0,9c1.387,2.28,6.961,0.373,10,1c0,6.667,0,13.333,0,20c-10,0-20,0-30,0
		C184.109,81.752,184.109,78.419,184.109,75.085z"/>
	<path fill-rule="evenodd" clip-rule="evenodd" d="M234.109,95.085c3.333,0,6.667,0,10,0c0,3.333,0,6.667,0,10c-3,0-6,0-9,0
		c-2.28,1.386-0.373,6.96-1,10c-6.667,0-13.333,0-20,0c0-3.333,0-6.667,0-10c6.333,0,12.667,0,19,0
		C235.39,103.699,233.482,98.125,234.109,95.085z"/>
</g>
</svg>
