<?xml version="1.0" encoding="utf-8"?>
<!-- Generator: Adobe Illustrator 15.1.0, SVG Export Plug-In . SVG Version: 6.00 Build 0)  -->
<!DOCTYPE svg PUBLIC "-//W3C//DTD SVG 1.1//EN" "http://www.w3.org/Graphics/SVG/1.1/DTD/svg11.dtd">
<svg version="1.1" id="Ebene_1" xmlns="http://www.w3.org/2000/svg" xmlns:xlink="http://www.w3.org/1999/xlink" x="0px" y="0px"
	 width="314px" height="433px" viewBox="0 0 314 433" enable-background="new 0 0 314 433" xml:space="preserve">
<g>
	<path fill-rule="evenodd" clip-rule="evenodd" d="M217.696,19.526c3.513-0.157,5.368-3.41,8.251-3
		c4.32,0.614,2.534,5.577,3.751,9.376c3.645-0.932,10.815-3.177,12.751,1.875c-2.304,9.333,2.929,14.536,4.876,21.753
		c3.41,1.838,7.313,0.934,10.501,2.25c2.596,1.071,4.501,4.158,7.127,5.626c1.951,1.091,4.425,1.236,6,2.25
		c9.454,6.088,8.519,17.905,13.877,28.879c7.602-2.629,6.896,5.458,7.501,9.001c2.23,0.483,4.082-1.852,6.751-1.875
		c2.394-0.021,5.521,1.149,6.376,3.375c0.672,1.75-0.491,4.121-0.375,6.376c0.267,5.166,4.186,8.886,4.876,12.751
		c-2.822,6.888-8.664,12.046-13.877,17.252c-5.313,5.306-9.299,11.58-13.877,16.877c-2.088,2.416-10.462,7.517-9.376,11.626
		c0.663,2.514,6.239,2.664,7.501,4.875c1.7,2.981,0.73,8.026,1.875,12.001c0.79,2.743,2.62,4.136,3,6.376
		c1.539,9.061-4.837,15.655-9.001,21.753c-4.03,5.903-10.457,12.326-7.501,22.128c1.988,1.03,3.477-1.632,6.001-1.875
		c3.108-0.299,4.972,0.821,6.751,3c-3.016,7.691,4.125,13.605,4.125,18.753c0,6.479-8.05,9.437-10.126,15.752
		c0.095,2.358,3.304,3.081,4.126,4.876c1.489,3.252,0.813,8.334,2.25,12.376c0.642,1.805,2.224,3.265,2.625,4.876
		c2.796,11.208-3.926,20.931-9.001,28.879c-0.989,0.829,0.287,2.498-0.375,3c-15.423,20.457-30.633,41.128-49.882,57.758
		c-1.462-1.643-4.144-3.295-7.126-3.75c-2.638-0.402-5.655,0.848-9.001,1.125c-3.36,0.278-6.293-1.352-8.251,1.125
		c0-1.625,0-3.25,0-4.876c3.625,0,7.251,0,10.876,0c0.873-3.128,0.127-7.874,0.375-11.626c-3.003-0.873-7.624-0.127-11.251-0.375
		c0-3.501,0-7.001,0-10.502c3.625,0,7.251,0,10.876,0c0.873-3.003,0.127-7.624,0.375-11.251c3.626,0,7.251,0,10.877,0
		c0.875-10.627,0.125-22.878,0.375-34.13c-3.003-0.872-7.624-0.127-11.252-0.375c0-7.251,0-14.502,0-21.753
		c3.626,0,7.251,0,10.877,0c0.875-14.502,0.125-30.629,0.375-45.756c-3.751,0-7.501,0-11.252,0c0-3.626,0-7.251,0-10.877
		c-6.751-0.874-15.126-0.125-22.503-0.375c0-3.5,0-7.001,0-10.501c7.501,0,15.002,0,22.503,0c0-7.501,0-15.002,0-22.503
		c3.626,0,7.251,0,10.877,0c0.874-6.752,0.125-15.127,0.375-22.503c3.625,0,7.251,0,10.876,0c0.873-3.003,0.127-7.624,0.375-11.251
		c3.751,0,7.501,0,11.252,0c0-11.501,0-23.003,0-34.504c-3.751,0-7.501,0-11.252,0c0-3.625,0-7.251,0-10.876
		c-3.003-0.873-7.624-0.127-11.251-0.375c0-7.251,0-14.502,0-21.753c3.625,0,7.251,0,10.876,0
		c0.875-10.752,0.126-23.128,0.375-34.505c-3.75,0-7.501,0-11.251,0c0-3.625,0-7.251,0-10.876
		c-10.502-0.875-22.628-0.125-33.755-0.375c0-3.625,0-7.251,0-10.876c-22.003-0.875-45.631-0.125-68.259-0.375
		c0,3.75,0,7.501,0,11.251c-11.252,0-22.503,0-33.755,0c0,3.75,0,7.501,0,11.251c-3.625,0-7.251,0-10.876,0
		c-0.875,10.752-0.125,23.128-0.375,34.505c3.75,0,7.501,0,11.251,0c0,3.5,0,7.001,0,10.501c-3.75,0-7.501,0-11.251,0
		c0,3.75,0,7.501,0,11.251c-3.625,0-7.251,0-10.876,0c-0.875,10.751-0.125,23.128-0.375,34.504c3.75,0,7.501,0,11.251,0
		c0,3.75,0,7.501,0,11.251c3.75,0,7.501,0,11.251,0c0,11.126,0,22.253,0,33.379c3.003,0.873,7.625,0.127,11.252,0.375
		c0,7.376,0,14.752,0,22.128c3.003,0.873,7.624,0.127,11.251,0.375c0,3.5,0,7.001,0,10.501c-3.625,0-7.251,0-10.876,0
		c-0.873,3.003-0.127,7.624-0.375,11.252c-3.751,0-7.501,0-11.252,0c0,15.252,0,30.504,0,45.756c3.75,0,7.501,0,11.252,0
		c0,7.251,0,14.502,0,21.753c-3.751,0-7.501,0-11.252,0c0,3.751,0,7.501,0,11.252c-3.625,0-7.251,0-10.876,0
		c-0.875,7.001-0.125,15.626-0.375,23.253c3.75,0,7.501,0,11.251,0c0,3.625,0,7.251,0,10.876c3.003,0.873,7.625,0.127,11.252,0.375
		c0,3.501,0,7.001,0,10.502c-3.625,0-7.251,0-10.876,0c-0.873,3.253-0.127,8.124-0.375,12.001c3.75,0,7.501,0,11.252,0
		c0,3.626,0,7.251,0,10.877c29.378,0.875,60.383,0.125,90.387,0.375c-2.888,1.407-5.369,2.966-7.876,4.876
		c-5.836,4.447-10.721,9.777-18.377,13.501c-4.649,2.262-11.034,7.477-17.253,5.626c-2.651-0.788-4.239-3.807-7.501-4.5
		c-2.548-0.543-4.504,0.87-7.501,1.125c-1.885,0.16-3.832-0.589-5.25-0.375c-1.933,0.291-4.4,2.293-6.751,3.375
		c-7.304,3.361-15.669,4.531-22.878,8.626c-4.787,2.72-7.98,7.248-12.377,9.377c-2.156,1.043-7.458,2.555-9.001,2.25
		c-2.316-0.458-3.031-3.731-5.626-4.876c-6.208-2.739-14.636,0.588-17.627-6.001c-0.5-1.101-0.315-2.738-0.75-4.125
		c-2.225-2.74-4.127-6.404-2.625-12.002c1.146-4.271,5.652-7.516,7.876-12.376c0.783-1.712,0.651-3.62,1.5-5.251
		c2.53-4.862,7.063-7.907,7.876-12.002c-1.101-12.275-24.08-2.674-23.628-16.502c-1.929-1.071-2.995-3.006-4.125-4.876
		c1.442-22.811,11.755-36.751,21.378-51.382c-0.297-6.563,5.085-9.395,5.625-13.877c-5.873,2.888-11.498,9.248-17.627,13.127
		c-2.538-0.587-3.208-3.042-4.875-4.5c-8.969,2.3-11.297-7.747-16.877-11.252c-6.436-1.14-12.98,1.193-15.752-3
		c-0.703-1.063-0.279-2.685-1.125-4.501c-1.5-3.222-3.725-2.965-4.125-6.376c-0.881-7.503,2.673-11.552,5.625-17.252
		c1.834-3.541,3.381-7.263,5.25-10.502c7.624-13.207,16.766-24.431,27.004-35.629c4.017-4.394,13.389-12.88,13.877-17.252
		c1.041-9.323-14.12-2.44-18.002-7.501c-1.187-1.546-0.297-3.533-1.125-5.25c-1.021-2.12-3.203-2.184-4.125-4.501
		c-0.816-13.788,7.53-22.445,12.752-31.879c1.672-3.021,4.081-6.925,4.125-8.626c0.124-4.749-4.575-5.749-6.751-9.001
		c-4.567-1.433-12.542,0.54-15.377-2.625c-0.452-1.298-0.686-2.814-0.75-4.5c-3.34-2.663-6.182-5.591-4.501-12.377
		c1.201-4.848,5.76-10.295,8.626-16.127c3.152-6.413,6.935-11.811,9.376-15.377c11.12-8.29,23.693-16.249,34.88-25.128
		c3.785-3.004,7.909-5.117,12.001-7.876c2.62-1.767,5.424-5.007,8.626-6.751c4.599-2.505,10.29-3.812,15.752-6.001
		c13.388-5.365,33.855-12.836,52.882-11.251c1.4,0.117,3.837,0.227,5.25,0.75c2.37,0.877,3.182,3.928,6.751,4.126
		c5.839,0.324,9.557-7.448,15.002-8.251c1.276-0.188,2.733,0.816,4.501,0.75c3.488-0.131,5.407-2.771,9.751-1.5
		C210.818,9.509,212.654,15.795,217.696,19.526z"/>
	<path fill-rule="evenodd" clip-rule="evenodd" d="M188.817,45.78c0,3.625,0,7.251,0,10.876c3.003,0.873,7.624,0.127,11.252,0.375
		c0,3.625,0,7.251,0,10.876c3.128,0.873,7.874,0.126,11.626,0.375c0.873-3.003,0.127-7.624,0.375-11.251c3.501,0,7.001,0,10.502,0
		c0,11.001,0,22.003,0,33.004c-3.501,0-7.001,0-10.502,0c0-3.625,0-7.251,0-10.876c-3.253-0.873-8.124-0.127-12.001-0.375
		c0,3.75,0,7.501,0,11.251c-11.002,0-22.003,0-33.005,0c0-7.501,0-15.002,0-22.503c-3.75,0-7.501,0-11.251,0
		c0-3.75,0-7.501,0-11.251c-4.001,0-8.001,0-12.002,0c0,3.75,0,7.501,0,11.251c-3.625,0-7.251,0-10.876,0
		c-0.875,6.752-0.125,15.127-0.375,22.503c-7.251,0-14.502,0-21.753,0c0-3.625,0-7.251,0-10.876
		c-3.253-0.873-8.125-0.127-12.001-0.375c0,3.75,0,7.501,0,11.251c-3.5,0-7.001,0-10.501,0c0-11.001,0-22.003,0-33.004
		c3.5,0,7.001,0,10.501,0c0,3.625,0,7.251,0,10.876c3.252,0.873,8.124,0.126,12.001,0.375c0-3.75,0-7.501,0-11.251
		c3.625,0,7.251,0,10.876,0c0.873-3.003,0.127-7.625,0.375-11.251C144.312,45.78,166.564,45.78,188.817,45.78z"/>
	<path fill-rule="evenodd" clip-rule="evenodd" d="M98.806,113.289c0,11.001,0,22.003,0,33.004c-7.251,0-14.502,0-21.753,0
		c0.25-10.876-0.5-22.753,0.375-33.004C84.554,113.289,91.68,113.289,98.806,113.289z"/>
	<path fill-rule="evenodd" clip-rule="evenodd" d="M222.572,113.289c0,3.625,0,7.251,0,10.876c3.003,0.873,7.624,0.127,11.251,0.375
		c0,11.001,0,22.003,0,33.004c-3.5,0-7.001,0-10.501,0c0-3.75,0-7.501,0-11.251c-3.751,0-7.501,0-11.252,0
		c0-11.001,0-22.003,0-33.004C215.571,113.289,219.071,113.289,222.572,113.289z"/>
	<path fill-rule="evenodd" clip-rule="evenodd" d="M110.807,147.043c3.5,0,7.001,0,10.501,0c0,3.625,0,7.251,0,10.876
		c-3.5,0-7.001,0-10.501,0C110.807,154.294,110.807,150.669,110.807,147.043z"/>
	<path fill-rule="evenodd" clip-rule="evenodd" d="M189.567,147.043c3.501,0,7.001,0,10.502,0c0,3.5,0,7.001,0,10.501
		c-3.501,0-7.001,0-10.502,0C189.567,154.044,189.567,150.544,189.567,147.043z"/>
	<path fill-rule="evenodd" clip-rule="evenodd" d="M132.935,214.553c0.24,7.616-0.647,14.104-0.375,21.753c-3.5,0-7.001,0-10.501,0
		c0-7.251,0-14.502,0-21.753C125.684,214.553,129.31,214.553,132.935,214.553z"/>
	<path fill-rule="evenodd" clip-rule="evenodd" d="M177.566,214.553c0,3.75,0,7.501,0,11.251c3.75,0,7.501,0,11.251,0
		c0,7.376,0,14.752,0,22.128c-3.524-0.226-7.968,0.468-10.876-0.375c0-3.5,0-7.001,0-10.501c-6.627-0.874-14.877-0.126-22.128-0.375
		c0.277-7.778-0.606-14.396-0.376-22.128C162.814,214.553,170.19,214.553,177.566,214.553z"/>
	<path fill-rule="evenodd" clip-rule="evenodd" d="M121.309,270.811c0,3.625,0,7.251,0,10.876
		c-7.616,0.24-14.105-0.647-21.753-0.375c0-3.626,0-7.251,0-10.876C107.172,270.195,113.661,271.082,121.309,270.811z"/>
	<path fill-rule="evenodd" clip-rule="evenodd" d="M211.32,270.436c0,3.625,0,7.25,0,10.876c-7.647-0.272-14.137,0.615-21.753,0.375
		c0-3.625,0-7.251,0-10.876C197.216,271.082,203.704,270.195,211.32,270.436z"/>
	<path fill-rule="evenodd" clip-rule="evenodd" d="M110.807,292.938c3.625,0,7.251,0,10.876,0c0,3.625,0,7.251,0,10.876
		c-3.625,0-7.251,0-10.876,0C110.807,300.189,110.807,296.563,110.807,292.938z"/>
	<path fill-rule="evenodd" clip-rule="evenodd" d="M189.192,292.938c3.626,0,7.251,0,10.877,0c0,3.625,0,7.251,0,10.876
		c-3.626,0-7.251,0-10.877,0C189.192,300.189,189.192,296.563,189.192,292.938z"/>
	<path fill-rule="evenodd" clip-rule="evenodd" d="M122.059,304.189c3.525,0.226,7.968-0.467,10.876,0.375c0,3.501,0,7.001,0,10.502
		c-3.625,0-7.251,0-10.876,0C122.059,311.44,122.059,307.815,122.059,304.189z"/>
	<path fill-rule="evenodd" clip-rule="evenodd" d="M188.817,304.189c0,3.626,0,7.251,0,10.877c-3.625,0-7.251,0-10.876,0
		c0.438-3.438-0.915-8.666,0.75-10.877C182.066,304.189,185.442,304.189,188.817,304.189z"/>
	<path fill-rule="evenodd" clip-rule="evenodd" d="M110.057,304.564c0,7.251,0,14.502,0,21.753c-3.625,0-7.251,0-10.876,0
		c-0.24-7.616,0.647-14.104,0.375-21.753C103.056,304.564,106.557,304.564,110.057,304.564z"/>
	<path fill-rule="evenodd" clip-rule="evenodd" d="M211.32,304.564c0,11.002,0,22.003,0,33.005c-3.625,0-7.251,0-10.876,0
		c0.102-11.025,0.596-21.657,0.375-33.005C204.319,304.564,207.82,304.564,211.32,304.564z"/>
	<path fill-rule="evenodd" clip-rule="evenodd" d="M166.314,327.067c0,3.626,0,7.251,0,10.877c-14.752,0-29.504,0-44.256,0
		c0.248-3.503-0.498-7.999,0.375-10.877C137.061,327.067,151.688,327.067,166.314,327.067z"/>
	<path fill-rule="evenodd" clip-rule="evenodd" d="M110.807,338.319c3.625,0,7.251,0,10.876,0c0,3.5,0,7.001,0,10.501
		c-3.625,0-7.251,0-10.876,0C110.807,345.32,110.807,341.819,110.807,338.319z"/>
	<path fill-rule="evenodd" clip-rule="evenodd" d="M177.566,349.57c0,3.501,0,7.001,0,10.502c-11.002,0-22.004,0-33.005,0
		c0-3.626,0-7.251,0-10.877C155.935,348.949,166.479,349.531,177.566,349.57z"/>
	<path fill-rule="evenodd" clip-rule="evenodd" d="M110.807,360.822c3.625,0,7.251,0,10.876,0c0,3.5,0,7.001,0,10.501
		c-3.625,0-7.251,0-10.876,0C110.807,367.823,110.807,364.322,110.807,360.822z"/>
	<path fill-rule="evenodd" clip-rule="evenodd" d="M144.187,169.171c0,3.625,0,7.251,0,10.876
		c10.502,0.875,22.628,0.125,33.755,0.375c0-3.75,0-7.501,0-11.251c3.625,0,7.251,0,10.876,0c0,3.875,0,7.751,0,11.626
		c3.751,0,7.501,0,11.252,0c0,3.625,0,7.251,0,10.876c-14.877,0-29.754,0-44.632,0c0,3.625,0,7.251,0,10.876
		c-14.876,0-29.753,0-44.63,0c0-3.5,0-7.001,0-10.501c3.625,0,7.251,0,10.876,0c0.873-3.003,0.127-7.625,0.375-11.252
		c3.625,0,7.251,0,10.876,0c0.873-3.127,0.127-7.874,0.375-11.626C136.936,169.171,140.561,169.171,144.187,169.171
		c0-3.625,0-7.251,0-10.876c11.252,0,22.503,0,33.755,0c0,3.625,0,7.251,0,10.876C166.689,169.171,155.438,169.171,144.187,169.171z
		"/>
	<path fill-rule="evenodd" clip-rule="evenodd" d="M205.319,7.9c-4.344-1.271-6.263,1.37-9.751,1.5
		c-1.768,0.066-3.225-0.938-4.501-0.75c-5.445,0.803-9.163,8.575-15.002,8.251c-3.569-0.198-4.381-3.249-6.751-4.126
		c-1.413-0.523-3.85-0.633-5.25-0.75c-19.027-1.584-39.495,5.887-52.882,11.251c-5.462,2.189-11.153,3.496-15.752,6.001
		c-3.202,1.744-6.007,4.984-8.626,6.751c-4.092,2.759-8.217,4.872-12.001,7.876c-11.187,8.88-23.76,16.838-34.88,25.128
		c-2.441,3.566-6.224,8.964-9.376,15.377c-2.867,5.832-7.425,11.279-8.626,16.127c-1.681,6.786,1.161,9.714,4.501,12.377
		c0.064,1.686,0.298,3.203,0.75,4.5c2.835,3.166,10.81,1.192,15.377,2.625c2.176,3.252,6.875,4.252,6.751,9.001
		c-0.044,1.701-2.454,5.605-4.125,8.626c-5.222,9.434-13.568,18.091-12.752,31.879c0.923,2.317,3.104,2.381,4.125,4.501
		c0.828,1.717-0.061,3.704,1.125,5.25c3.883,5.061,19.043-1.822,18.002,7.501c-0.488,4.373-9.86,12.859-13.877,17.252
		c-10.238,11.199-19.38,22.422-27.004,35.629c-1.87,3.239-3.417,6.961-5.25,10.502c-2.953,5.7-6.507,9.749-5.625,17.252
		c0.4,3.411,2.625,3.154,4.125,6.376c0.846,1.816,0.422,3.438,1.125,4.501c2.771,4.193,9.316,1.86,15.752,3
		c5.58,3.505,7.909,13.552,16.877,11.252c1.667,1.458,2.337,3.913,4.875,4.5c6.129-3.879,11.754-10.239,17.627-13.127
		c-0.54,4.482-5.922,7.313-5.625,13.877c-9.623,14.631-19.936,28.571-21.378,51.382c1.13,1.87,2.197,3.805,4.125,4.876
		c-0.452,13.828,22.527,4.227,23.628,16.502c-0.813,4.095-5.346,7.14-7.876,12.002c-0.849,1.631-0.717,3.539-1.5,5.251
		c-2.224,4.86-6.73,8.105-7.876,12.376c-1.502,5.598,0.4,9.262,2.625,12.002c0.435,1.387,0.25,3.024,0.75,4.125
		c2.991,6.589,11.419,3.262,17.627,6.001c2.595,1.145,3.31,4.418,5.626,4.876c1.542,0.305,6.845-1.207,9.001-2.25
		c4.396-2.129,7.59-6.657,12.377-9.377c7.208-4.095,15.574-5.265,22.878-8.626c2.351-1.082,4.818-3.084,6.751-3.375
		c1.419-0.214,3.365,0.535,5.25,0.375c2.997-0.255,4.953-1.668,7.501-1.125c3.262,0.693,4.85,3.712,7.501,4.5
		c6.219,1.851,12.604-3.364,17.253-5.626c7.656-3.724,12.541-9.054,18.377-13.501c2.507-1.91,4.988-3.469,7.876-4.876
		c-30.004-0.25-61.008,0.5-90.387-0.375c0-3.626,0-7.251,0-10.877c-3.751,0-7.501,0-11.252,0c0.249-3.877-0.498-8.748,0.375-12.001
		c3.625,0,7.251,0,10.876,0c0-3.501,0-7.001,0-10.502c-3.627-0.248-8.249,0.498-11.252-0.375c0-3.625,0-7.251,0-10.876
		c-3.75,0-7.501,0-11.251,0c0.25-7.627-0.5-16.252,0.375-23.253c3.625,0,7.251,0,10.876,0c0-3.751,0-7.501,0-11.252
		c3.75,0,7.501,0,11.252,0c0-7.251,0-14.502,0-21.753c-3.751,0-7.501,0-11.252,0c0-15.252,0-30.504,0-45.756
		c3.75,0,7.501,0,11.252,0c0.248-3.628-0.498-8.249,0.375-11.252c3.625,0,7.251,0,10.876,0c0-3.5,0-7.001,0-10.501
		c-3.627-0.248-8.249,0.498-11.251-0.375c0-7.376,0-14.752,0-22.128c-3.627-0.249-8.249,0.497-11.252-0.375
		c0-11.126,0-22.253,0-33.379c-3.75,0-7.501,0-11.251,0c0-3.75,0-7.501,0-11.251c-3.75,0-7.501,0-11.251,0
		c0.25-11.376-0.5-23.753,0.375-34.504c3.625,0,7.251,0,10.876,0c0-3.75,0-7.501,0-11.251c3.75,0,7.501,0,11.251,0
		c0-3.5,0-7.001,0-10.501c-3.75,0-7.501,0-11.251,0c0.25-11.377-0.5-23.753,0.375-34.505c3.625,0,7.251,0,10.876,0
		c0-3.75,0-7.501,0-11.251c11.252,0,22.503,0,33.755,0c0-3.75,0-7.501,0-11.251c22.628,0.25,46.256-0.5,68.259,0.375
		c0,3.625,0,7.251,0,10.876c11.127,0.25,23.253-0.5,33.755,0.375c0,3.625,0,7.251,0,10.876c3.75,0,7.501,0,11.251,0
		c-0.249,11.377,0.5,23.753-0.375,34.505c-3.625,0-7.251,0-10.876,0c0,7.251,0,14.502,0,21.753
		c3.627,0.248,8.248-0.498,11.251,0.375c0,3.625,0,7.251,0,10.876c3.751,0,7.501,0,11.252,0c0,11.501,0,23.003,0,34.504
		c-3.751,0-7.501,0-11.252,0c-0.248,3.627,0.498,8.249-0.375,11.251c-3.625,0-7.251,0-10.876,0
		c-0.25,7.376,0.499,15.751-0.375,22.503c-3.626,0-7.251,0-10.877,0c0,7.501,0,15.002,0,22.503c-7.501,0-15.002,0-22.503,0
		c0,3.5,0,7.001,0,10.501c7.377,0.25,15.752-0.499,22.503,0.375c0,3.626,0,7.251,0,10.877c3.751,0,7.501,0,11.252,0
		c-0.25,15.127,0.5,31.254-0.375,45.756c-3.626,0-7.251,0-10.877,0c0,7.251,0,14.502,0,21.753c3.628,0.248,8.249-0.497,11.252,0.375
		c-0.25,11.252,0.5,23.503-0.375,34.13c-3.626,0-7.251,0-10.877,0c-0.248,3.627,0.498,8.248-0.375,11.251c-3.625,0-7.251,0-10.876,0
		c0,3.501,0,7.001,0,10.502c3.627,0.248,8.248-0.498,11.251,0.375c-0.248,3.752,0.498,8.498-0.375,11.626c-3.625,0-7.251,0-10.876,0
		c0,1.626,0,3.251,0,4.876c1.958-2.477,4.891-0.847,8.251-1.125c3.346-0.277,6.363-1.527,9.001-1.125
		c2.982,0.455,5.664,2.107,7.126,3.75c19.249-16.63,34.459-37.301,49.882-57.758c0.662-0.502-0.614-2.171,0.375-3
		c5.075-7.948,11.797-17.671,9.001-28.879c-0.401-1.611-1.983-3.071-2.625-4.876c-1.438-4.042-0.761-9.124-2.25-12.376
		c-0.822-1.795-4.031-2.518-4.126-4.876c2.076-6.315,10.126-9.272,10.126-15.752c0-5.147-7.141-11.062-4.125-18.753
		c-1.779-2.179-3.643-3.299-6.751-3c-2.524,0.243-4.013,2.905-6.001,1.875c-2.956-9.802,3.471-16.225,7.501-22.128
		c4.164-6.098,10.54-12.692,9.001-21.753c-0.38-2.24-2.21-3.633-3-6.376c-1.145-3.975-0.175-9.021-1.875-12.001
		c-1.262-2.212-6.838-2.362-7.501-4.875c-1.086-4.109,7.288-9.21,9.376-11.626c4.578-5.298,8.563-11.572,13.877-16.877
		c5.213-5.206,11.055-10.365,13.877-17.252c-0.69-3.866-4.609-7.586-4.876-12.751c-0.116-2.255,1.047-4.625,0.375-6.376
		c-0.854-2.227-3.982-3.396-6.376-3.375c-2.669,0.024-4.521,2.359-6.751,1.875c-0.605-3.543,0.101-11.631-7.501-9.001
		c-5.358-10.974-4.423-22.791-13.877-28.879c-1.575-1.014-4.049-1.159-6-2.25c-2.626-1.468-4.531-4.555-7.127-5.626
		c-3.188-1.316-7.091-0.412-10.501-2.25c-1.947-7.217-7.18-12.419-4.876-21.753c-1.936-5.053-9.106-2.808-12.751-1.875
		c-1.217-3.799,0.569-8.762-3.751-9.376c-2.883-0.41-4.738,2.843-8.251,3C212.654,15.795,210.818,9.509,205.319,7.9z M122.059,45.78
		c-0.248,3.627,0.498,8.248-0.375,11.251c-3.625,0-7.251,0-10.876,0c0,3.75,0,7.501,0,11.251c-3.877-0.249-8.749,0.498-12.001-0.375
		c0-3.625,0-7.251,0-10.876c-3.5,0-7.001,0-10.501,0c0,11.001,0,22.003,0,33.004c3.5,0,7.001,0,10.501,0c0-3.75,0-7.501,0-11.251
		c3.877,0.248,8.749-0.498,12.001,0.375c0,3.625,0,7.251,0,10.876c7.251,0,14.502,0,21.753,0c0.25-7.376-0.5-15.751,0.375-22.503
		c3.625,0,7.251,0,10.876,0c0-3.75,0-7.501,0-11.251c4,0,8.001,0,12.002,0c0,3.75,0,7.501,0,11.251c3.75,0,7.501,0,11.251,0
		c0,7.501,0,15.002,0,22.503c11.002,0,22.003,0,33.005,0c0-3.75,0-7.501,0-11.251c3.877,0.248,8.748-0.498,12.001,0.375
		c0,3.625,0,7.251,0,10.876c3.501,0,7.001,0,10.502,0c0-11.001,0-22.003,0-33.004c-3.501,0-7.001,0-10.502,0
		c-0.248,3.627,0.498,8.249-0.375,11.251c-3.752-0.249-8.498,0.498-11.626-0.375c0-3.625,0-7.251,0-10.876
		c-3.628-0.249-8.249,0.497-11.252-0.375c0-3.625,0-7.25,0-10.876C166.564,45.78,144.312,45.78,122.059,45.78z M77.428,113.289
		c-0.875,10.251-0.125,22.128-0.375,33.004c7.25,0,14.502,0,21.753,0c0-11.001,0-22.003,0-33.004
		C91.68,113.289,84.554,113.289,77.428,113.289z M212.07,113.289c0,11.001,0,22.003,0,33.004c3.751,0,7.501,0,11.252,0
		c0,3.75,0,7.501,0,11.251c3.5,0,7.001,0,10.501,0c0-11.001,0-22.003,0-33.004c-3.627-0.248-8.248,0.498-11.251-0.375
		c0-3.625,0-7.251,0-10.876C219.071,113.289,215.571,113.289,212.07,113.289z M110.807,157.92c3.5,0,7.001,0,10.501,0
		c0-3.625,0-7.251,0-10.876c-3.5,0-7.001,0-10.501,0C110.807,150.669,110.807,154.294,110.807,157.92z M189.567,157.545
		c3.501,0,7.001,0,10.502,0c0-3.5,0-7.001,0-10.501c-3.501,0-7.001,0-10.502,0C189.567,150.544,189.567,154.044,189.567,157.545z
		 M177.941,169.171c0-3.625,0-7.251,0-10.876c-11.252,0-22.503,0-33.755,0c0,3.625,0,7.251,0,10.876c-3.625,0-7.251,0-10.876,0
		c-0.248,3.752,0.498,8.499-0.375,11.626c-3.625,0-7.251,0-10.876,0c-0.248,3.627,0.498,8.249-0.375,11.252
		c-3.625,0-7.251,0-10.876,0c0,3.5,0,7,0,10.501c14.877,0,29.754,0,44.63,0c0-3.625,0-7.251,0-10.876c14.878,0,29.755,0,44.632,0
		c0-3.625,0-7.251,0-10.876c-3.751,0-7.501,0-11.252,0c0-3.875,0-7.751,0-11.626C185.192,169.171,181.566,169.171,177.941,169.171
		c0,3.75,0,7.501,0,11.251c-11.127-0.25-23.253,0.5-33.755-0.375c0-3.625,0-7.251,0-10.876
		C155.438,169.171,166.689,169.171,177.941,169.171z M122.059,214.553c0,7.251,0,14.502,0,21.753c3.5,0,7.001,0,10.501,0
		c-0.272-7.648,0.615-14.137,0.375-21.753C129.31,214.553,125.684,214.553,122.059,214.553z M155.438,214.553
		c-0.23,7.731,0.653,14.35,0.376,22.128c7.251,0.249,15.501-0.499,22.128,0.375c0,3.5,0,7.001,0,10.501
		c2.908,0.843,7.352,0.149,10.876,0.375c0-7.376,0-14.752,0-22.128c-3.75,0-7.501,0-11.251,0c0-3.75,0-7.501,0-11.251
		C170.19,214.553,162.814,214.553,155.438,214.553z M99.556,270.436c0,3.625,0,7.25,0,10.876c7.648-0.272,14.137,0.615,21.753,0.375
		c0-3.625,0-7.251,0-10.876C113.661,271.082,107.172,270.195,99.556,270.436z M189.567,270.811c0,3.625,0,7.251,0,10.876
		c7.616,0.24,14.105-0.647,21.753-0.375c0-3.626,0-7.251,0-10.876C203.704,270.195,197.216,271.082,189.567,270.811z
		 M110.807,303.814c3.625,0,7.251,0,10.876,0c0-3.625,0-7.251,0-10.876c-3.625,0-7.251,0-10.876,0
		C110.807,296.563,110.807,300.189,110.807,303.814z M189.192,303.814c3.626,0,7.251,0,10.877,0c0-3.625,0-7.251,0-10.876
		c-3.626,0-7.251,0-10.877,0C189.192,296.563,189.192,300.189,189.192,303.814z M122.059,315.066c3.625,0,7.251,0,10.876,0
		c0-3.501,0-7.001,0-10.502c-2.909-0.842-7.352-0.149-10.876-0.375C122.059,307.815,122.059,311.44,122.059,315.066z
		 M178.691,304.189c-1.665,2.211-0.313,7.439-0.75,10.877c3.625,0,7.251,0,10.876,0c0-3.626,0-7.251,0-10.877
		C185.442,304.189,182.066,304.189,178.691,304.189z M99.556,304.564c0.272,7.648-0.615,14.137-0.375,21.753
		c3.625,0,7.251,0,10.876,0c0-7.251,0-14.502,0-21.753C106.557,304.564,103.056,304.564,99.556,304.564z M200.819,304.564
		c0.221,11.348-0.273,21.979-0.375,33.005c3.625,0,7.251,0,10.876,0c0-11.002,0-22.003,0-33.005
		C207.82,304.564,204.319,304.564,200.819,304.564z M122.434,327.067c-0.873,2.878-0.127,7.374-0.375,10.877
		c14.752,0,29.504,0,44.256,0c0-3.626,0-7.251,0-10.877C151.688,327.067,137.061,327.067,122.434,327.067z M110.807,348.82
		c3.625,0,7.251,0,10.876,0c0-3.5,0-7.001,0-10.501c-3.625,0-7.251,0-10.876,0C110.807,341.819,110.807,345.32,110.807,348.82z
		 M144.562,349.195c0,3.626,0,7.251,0,10.877c11.001,0,22.003,0,33.005,0c0-3.501,0-7.001,0-10.502
		C166.479,349.531,155.935,348.949,144.562,349.195z M110.807,371.323c3.625,0,7.251,0,10.876,0c0-3.5,0-7.001,0-10.501
		c-3.625,0-7.251,0-10.876,0C110.807,364.322,110.807,367.823,110.807,371.323z"/>
</g>
</svg>
