<?xml version="1.0" encoding="utf-8"?>
<!-- Generator: Adobe Illustrator 15.1.0, SVG Export Plug-In . SVG Version: 6.00 Build 0)  -->
<!DOCTYPE svg PUBLIC "-//W3C//DTD SVG 1.1//EN" "http://www.w3.org/Graphics/SVG/1.1/DTD/svg11.dtd">
<svg version="1.1" id="Ebene_1" xmlns="http://www.w3.org/2000/svg" xmlns:xlink="http://www.w3.org/1999/xlink" x="0px" y="0px"
	 width="150px" height="310px" viewBox="0 0 150 310" enable-background="new 0 0 150 310" xml:space="preserve">
<g>
	<path fill-rule="evenodd" clip-rule="evenodd" d="M10.017,80c3.333,0,6.667,0,10,0c0,3.333,0,6.667,0,10c-3.333,0-6.667,0-10,0
		C10.017,86.667,10.017,83.333,10.017,80z"/>
	<path fill-rule="evenodd" clip-rule="evenodd" d="M60.017,0c16.667,0,33.333,0,50,0c0,3.333,0,6.667,0,10c-13,0-26,0-39,0
		c-2.28,1.386-0.373,6.96-1,10c-3,0-6,0-9,0c-2.28,1.386-0.373,6.96-1,10c-3.333,0-6.667,0-10,0c0,3.333,0,6.667,0,10
		c6.667,0,13.333,0,20,0c0,3.333,0,6.667,0,10c-6.333,0-12.667,0-19,0c-2.28,1.386-0.373,6.96-1,10c-3.333,0-6.667,0-10,0
		c0-9.667,0-19.333,0-29c-1.386-2.28-6.96-0.373-10-1c0,13.333,0,26.667,0,40c-6.333,0-12.667,0-19,0c-2.28,1.386-0.373,6.96-1,10
		c-3.333,0-6.667,0-10,0c0-3.333,0-6.667,0-10c3,0,6,0,9,0c2.28-1.386,0.373-6.96,1-10c3.333,0,6.667,0,10,0c0-10,0-20,0-30
		c3.333,0,6.667,0,10,0c0-3.333,0-6.667,0-10c6.333,0,12.667,0,19,0c2.28-1.386,0.373-6.96,1-10c3.333,0,6.667,0,10,0
		C60.017,6.667,60.017,3.333,60.017,0z"/>
	<path fill-rule="evenodd" clip-rule="evenodd" d="M109.017,20c-3,0-6,0-9,0c0,3.333,0,6.667,0,10c3.039,0.627,8.613-1.28,10,1
		c-0.619,2.714,1.27,7.936-1,9c-9.667,0-19.333,0-29,0c0,3.333,0,6.667,0,10c10,0,20,0,30,0c-0.627,3.04,1.28,8.614-1,10
		c-19.667,0-39.333,0-59,0c0,3.333,0,6.667,0,10c3.04,0.627,8.614-1.28,10,1c0,6.333,0,12.667,0,19c3.333,0,6.667,0,10,0
		c0.627-3.04-1.28-8.614,1-10c6.333,0,12.667,0,19,0c0,3.333,0,6.667,0,10c3.333,0,6.667,0,10,0c0-6.667,0-13.333,0-20
		c3.333,0,6.667,0,10,0c0.627-3.04-1.28-8.614,1-10c3,0,6,0,9,0c0-10,0-20,0-30c3.333,0,6.667,0,10,0c0-3.333,0-6.667,0-10
		c-3.333,0-6.667,0-10,0c0-3.333,0-6.667,0-10c-3.333,0-6.667,0-10,0C109.39,13.04,111.297,18.614,109.017,20z M10.017,90
		c3.333,0,6.667,0,10,0c0-3.333,0-6.667,0-10c-3.333,0-6.667,0-10,0C10.017,83.333,10.017,86.667,10.017,90z"/>
	<path fill-rule="evenodd" clip-rule="evenodd" d="M110.017,310c0.627-3.039-1.28-8.613,1-10c6.333,0,12.667,0,19,0c0-30,0-60,0-90
		c-6.667,0-13.333,0-20,0c0,30,0,60,0,90c-3.039-0.627-8.613,1.28-10-1c0-29.667,0-59.333,0-89c-3.039-0.627-8.613,1.28-10-1
		c0-9.667,0-19.333,0-29c3.333,0,6.667,0,10,0c0-6.667,0-13.333,0-20c-10,0-20,0-30,0c0-3.333,0-6.667,0-10
		c-3.04-0.627-8.614,1.28-10-1c0-3,0-6,0-9c-10,0-20,0-30,0c0.627-3.04-1.28-8.614,1-10c6.333,0,12.667,0,19,0
		c0.627-3.04-1.28-8.614,1-10c3,0,6,0,9,0c0,3.333,0,6.667,0,10c3.04,0.627,8.614-1.28,10,1c0,3,0,6,0,9c6.667,0,13.333,0,20,0
		c0-10,0-20,0-30c-13.333,0-26.667,0-40,0c-0.627,3.04,1.28,8.614-1,10c-6.333,0-12.667,0-19,0c-0.627,3.04,1.28,8.614-1,10
		c-2.714-0.619-7.936,1.27-9-1c0-6.333,0-12.667,0-19c3.333,0,6.667,0,10,0c0-3.333,0-6.667,0-10c-3.04-0.627-8.614,1.28-10-1
		c0-3,0-6,0-9c3.333,0,6.667,0,10,0c0-6.667,0-13.333,0-20c3.04,0.627,8.614-1.28,10,1c0,6.333,0,12.667,0,19
		c3.04,0.627,8.614-1.28,10,1c0,3,0,6,0,9c-3.333,0-6.667,0-10,0c0,3.333,0,6.667,0,10c3.333,0,6.667,0,10,0
		c0.627-3.04-1.28-8.614,1-10c19.667,0,39.333,0,59,0c0-3.333,0-6.667,0-10c3.333,0,6.667,0,10,0c0-6.667,0-13.333,0-20
		c3.333,0,6.667,0,10,0c0-13.333,0-26.667,0-40c3.039,0.627,8.613-1.28,10,1c0,13,0,26,0,39c-3.333,0-6.667,0-10,0
		c0,6.667,0,13.333,0,20c-3.333,0-6.667,0-10,0c-0.627,3.04,1.28,8.614-1,10c-3,0-6,0-9,0c-0.627,3.04,1.28,8.614-1,10c-3,0-6,0-9,0
		c0,3.333,0,6.667,0,10c6.667,0,13.333,0,20,0c0-6.667,0-13.333,0-20c3.039,0.627,8.613-1.28,10,1c0,13,0,26,0,39
		c3.039,0.627,8.613-1.28,10,1c0,3,0,6,0,9c-3.333,0-6.667,0-10,0c0,3.333,0,6.667,0,10c3.039,0.627,8.613-1.28,10,1
		c0,6.333,0,12.667,0,19c-3.333,0-6.667,0-10,0c0-3.333,0-6.667,0-10c-6.667,0-13.333,0-20,0c0,3.333,0,6.667,0,10
		c-3.333,0-6.667,0-10,0c0,6.667,0,13.333,0,20c13.333,0,26.667,0,40,0c0-6.667,0-13.333,0-20c3.333,0,6.667,0,10,0c0,10,0,20,0,30
		c-3.333,0-6.667,0-10,0c0,30,0,60,0,90c-3.042,0.958-10.142-2.142-10,2c0,2.667,0,5.333,0,8C123.35,310,116.684,310,110.017,310z
		 M100.017,150c6.667,0,13.333,0,20,0c0-6.667,0-13.333,0-20c-6.667,0-13.333,0-20,0C100.017,136.667,100.017,143.333,100.017,150z"
		/>
	<path fill-rule="evenodd" clip-rule="evenodd" d="M110.017,10c3.333,0,6.667,0,10,0c0,3.333,0,6.667,0,10c3.333,0,6.667,0,10,0
		c0,3.333,0,6.667,0,10c-3.333,0-6.667,0-10,0c0,10,0,20,0,30c-3,0-6,0-9,0c-2.28,1.386-0.373,6.96-1,10c-3.333,0-6.667,0-10,0
		c0,6.667,0,13.333,0,20c-3.333,0-6.667,0-10,0c0-3.333,0-6.667,0-10c-6.333,0-12.667,0-19,0c-2.28,1.386-0.373,6.96-1,10
		c-3.333,0-6.667,0-10,0c0-6.333,0-12.667,0-19c-1.386-2.28-6.96-0.373-10-1c0-3.333,0-6.667,0-10c19.667,0,39.333,0,59,0
		c2.28-1.386,0.373-6.96,1-10c-10,0-20,0-30,0c0-3.333,0-6.667,0-10c9.667,0,19.333,0,29,0c2.27-1.064,0.381-6.286,1-9
		c-1.387-2.28-6.961-0.373-10-1c0-3.333,0-6.667,0-10c3,0,6,0,9,0C111.297,18.614,109.39,13.04,110.017,10z"/>
</g>
</svg>
