<?xml version="1.0" encoding="utf-8"?>
<!-- Generator: Adobe Illustrator 15.1.0, SVG Export Plug-In . SVG Version: 6.00 Build 0)  -->
<!DOCTYPE svg PUBLIC "-//W3C//DTD SVG 1.1//EN" "http://www.w3.org/Graphics/SVG/1.1/DTD/svg11.dtd">
<svg version="1.1" id="Ebene_1" xmlns="http://www.w3.org/2000/svg" xmlns:xlink="http://www.w3.org/1999/xlink" x="0px" y="0px"
	 width="212px" height="398.553px" viewBox="0 0 212 398.553" enable-background="new 0 0 212 398.553" xml:space="preserve">
<g>
	<path fill-rule="evenodd" clip-rule="evenodd" fill="#FFFFFF" d="M-11.766,0c78.763,0,157.518,0,236.282,0
		c0,132.522,0,265.029,0,397.553c-78.885,0-157.772,0-236.657,0c0-132.138,0-264.294,0-396.428C-12.173,0.593-12.203,0.063-11.766,0
		z M66.244,97.513c0.873,3.003,0.127,7.624,0.375,11.251c3.75,0,7.501,0,11.251,0c0,3.75,0,7.501,0,11.251c3.75,0,7.501,0,11.251,0
		c0,3.75,0,7.501,0,11.251c15.002,0,30.004,0,45.006,0c0.248-3.627-0.498-8.249,0.375-11.251c3.625,0,7.251,0,10.876,0
		c0.248-3.627-0.497-8.249,0.375-11.251c3.626,0,7.251,0,10.877,0c0.248-3.627-0.498-8.249,0.375-11.251c3.625,0,7.251,0,10.876,0
		c0-7.501,0-15.002,0-22.503c-3.75,0-7.501,0-11.251,0c-0.25,7.376,0.499,15.751-0.375,22.503
		c-3.503-0.248-7.999,0.497-10.877-0.375c0-3.625,0-7.251,0-10.876c-3.75,0-7.501,0-11.251,0c-0.25,7.376,0.499,15.751-0.375,22.503
		c-3.626,0-7.251,0-10.877,0c0-7.501,0-15.002,0-22.503c-3.75,0-7.501,0-11.252,0c0-11.252,0-22.503,0-33.755
		c-3.75,0-7.5,0-11.251,0c-0.25,18.627,0.5,38.255-0.375,56.258c-3.625,0-7.251,0-10.876,0c0-7.501,0-15.002,0-22.503
		c-3.75,0-7.501,0-11.251,0c0,3.75,0,7.501,0,11.251c-3.75,0-7.501,0-11.251,0c0-7.501,0-15.002,0-22.503c-3.75,0-7.501,0-11.251,0
		c0,7.501,0,15.002,0,22.503C58.993,97.513,62.619,97.513,66.244,97.513z M55.368,142.519c0,7.501,0,15.002,0,22.503
		c7.501,0,15.002,0,22.503,0c0-7.501,0-15.002,0-22.503C70.37,142.519,62.869,142.519,55.368,142.519z M99.999,153.771
		c0.873,3.003,0.127,7.624,0.375,11.251c11.252,0,22.503,0,33.755,0c0-3.75,0-7.501,0-11.251c3.75,0,7.501,0,11.251,0
		c0-3.75,0-7.501,0-11.251c-3.75,0-7.501,0-11.251,0c0,3.75,0,7.501,0,11.251c-11.127-0.25-23.253,0.5-33.755-0.375
		c0-3.625,0-7.251,0-10.876c-3.75,0-7.501,0-11.251,0c0,3.75,0,7.501,0,11.251C92.748,153.771,96.374,153.771,99.999,153.771z
		 M156.632,142.519c0,7.501,0,15.002,0,22.503c3.75,0,7.501,0,11.251,0c0-7.501,0-15.002,0-22.503
		C164.133,142.519,160.382,142.519,156.632,142.519z M112.001,176.273c-0.873,3.003-0.127,7.624-0.376,11.251
		c15.002,0,30.005,0,45.007,0c0-3.75,0-7.501,0-11.251C141.755,176.273,126.878,176.273,112.001,176.273z M89.123,198.777
		c0,3.75,0,7.501,0,11.251c7.501,0,15.002,0,22.502,0c0-3.75,0-7.501,0-11.251C104.125,198.777,96.624,198.777,89.123,198.777z
		 M55.368,221.28c0,11.251,0,22.503,0,33.754c3.75,0,7.501,0,11.251,0c0-11.251,0-22.503,0-33.754
		C62.869,221.28,59.119,221.28,55.368,221.28z M133.754,232.531c0.296,0.022,0.432,0.363,0.375,0.751c0,3.5,0,7,0,10.501
		c3.75,0,7.501,0,11.251,0c0-3.751,0-7.501,0-11.252c-3.75,0-7.501,0-11.251,0c0-3.75,0-7.501,0-11.251c-15.002,0-30.004,0-45.006,0
		c-0.248,3.627,0.498,8.248-0.375,11.251c-3.625,0-7.251,0-10.876,0c0,3.751,0,7.501,0,11.252c3.75,0,7.501,0,11.251,0
		c0-3.751,0-7.501,0-11.252C103.114,233.245,120.783,231.579,133.754,232.531z M156.632,221.28c0,11.251,0,22.503,0,33.754
		c3.75,0,7.501,0,11.251,0c-0.247-11.129,0.496-23.249-0.375-33.754C163.883,221.28,160.257,221.28,156.632,221.28z M89.123,289.539
		c0,3.501,0,7.001,0,10.502c15.002,0,30.004,0,45.006,0c0.248-3.628-0.498-8.249,0.375-11.252c3.625,0,7.251,0,10.876,0
		c0-3.75,0-7.501,0-11.251c3.751,0,7.501,0,11.252,0c0-3.751,0-7.501,0-11.252c-7.501,0-15.002,0-22.503,0
		c-0.25,7.377,0.499,15.752-0.375,22.503c-3.626,0-7.251,0-10.877,0c0-7.501,0-15.002,0-22.503c-7.501,0-15.002,0-22.503,0
		c-0.25,7.377,0.5,15.752-0.375,22.503c-3.625,0-7.251,0-10.876,0c0-7.501,0-15.002,0-22.503c-7.501,0-15.002,0-22.503,0
		c0,3.751,0,7.501,0,11.252c3.627,0.248,8.249-0.498,11.251,0.375c0,3.625,0,7.251,0,10.876
		C81.395,289.265,86.84,287.82,89.123,289.539z M44.116,300.041c0.244,7.382-0.492,15.743,0.375,22.503c3.625,0,7.251,0,10.876,0
		c0-7.501,0-15.002,0-22.503C51.617,300.041,47.867,300.041,44.116,300.041z M134.129,311.292c0,7.501,0,15.002,0,22.503
		c7.382-0.243,15.743,0.492,22.503-0.375c0-7.376,0-14.752,0-22.128C149.131,311.292,141.63,311.292,134.129,311.292z
		 M78.246,322.543c-0.873,3.003-0.127,7.624-0.375,11.251c15.002,0,30.004,0,45.006,0c0-3.75,0-7.501,0-11.251
		C108,322.543,93.123,322.543,78.246,322.543z M77.871,345.046c0,3.75,0,7.501,0,11.251c7.501,0,15.002,0,22.503,0
		c0-3.75,0-7.501,0-11.251C92.873,345.046,85.372,345.046,77.871,345.046z"/>
	<path fill-rule="evenodd" clip-rule="evenodd" d="M77.871,142.519c0,7.501,0,15.002,0,22.503c-7.501,0-15.002,0-22.503,0
		c0-7.501,0-15.002,0-22.503C62.869,142.519,70.37,142.519,77.871,142.519z"/>
	<path fill-rule="evenodd" clip-rule="evenodd" d="M167.883,142.519c0,7.501,0,15.002,0,22.503c-3.75,0-7.501,0-11.251,0
		c0-7.501,0-15.002,0-22.503C160.382,142.519,164.133,142.519,167.883,142.519z"/>
	<path fill-rule="evenodd" clip-rule="evenodd" d="M156.632,176.273c0,3.75,0,7.501,0,11.251c-15.002,0-30.005,0-45.007,0
		c0.249-3.627-0.497-8.249,0.376-11.251C126.878,176.273,141.755,176.273,156.632,176.273z"/>
	<path fill-rule="evenodd" clip-rule="evenodd" d="M111.625,198.777c0,3.75,0,7.501,0,11.251c-7.5,0-15.001,0-22.502,0
		c0-3.75,0-7.501,0-11.251C96.624,198.777,104.125,198.777,111.625,198.777z"/>
	<path fill-rule="evenodd" clip-rule="evenodd" d="M66.62,221.28c0,11.251,0,22.503,0,33.754c-3.75,0-7.501,0-11.251,0
		c0-11.251,0-22.503,0-33.754C59.119,221.28,62.869,221.28,66.62,221.28z"/>
	<path fill-rule="evenodd" clip-rule="evenodd" d="M167.508,221.28c0.871,10.505,0.128,22.625,0.375,33.754
		c-3.75,0-7.501,0-11.251,0c0-11.251,0-22.503,0-33.754C160.257,221.28,163.883,221.28,167.508,221.28z"/>
	<path fill-rule="evenodd" clip-rule="evenodd" d="M55.368,300.041c0,7.501,0,15.002,0,22.503c-3.625,0-7.251,0-10.876,0
		c-0.867-6.76-0.131-15.121-0.375-22.503C47.867,300.041,51.617,300.041,55.368,300.041z"/>
	<path fill-rule="evenodd" clip-rule="evenodd" d="M156.632,311.292c0,7.376,0,14.752,0,22.128
		c-6.76,0.867-15.121,0.132-22.503,0.375c0-7.501,0-15.002,0-22.503C141.63,311.292,149.131,311.292,156.632,311.292z"/>
	<path fill-rule="evenodd" clip-rule="evenodd" d="M122.877,322.543c0,3.75,0,7.501,0,11.251c-15.002,0-30.004,0-45.006,0
		c0.248-3.627-0.498-8.248,0.375-11.251C93.123,322.543,108,322.543,122.877,322.543z"/>
	<path fill-rule="evenodd" clip-rule="evenodd" d="M100.374,345.046c0,3.75,0,7.501,0,11.251c-7.501,0-15.002,0-22.503,0
		c0-3.75,0-7.501,0-11.251C85.372,345.046,92.873,345.046,100.374,345.046z"/>
	<path fill-rule="evenodd" clip-rule="evenodd" d="M55.368,97.513c0-7.501,0-15.002,0-22.503c3.75,0,7.501,0,11.251,0
		c0,7.501,0,15.002,0,22.503c3.75,0,7.501,0,11.251,0c0-3.75,0-7.501,0-11.251c3.75,0,7.501,0,11.251,0c0,7.501,0,15.002,0,22.503
		c3.625,0,7.251,0,10.876,0c0.875-18.002,0.125-37.63,0.375-56.258c3.75,0,7.501,0,11.251,0c0,11.252,0,22.503,0,33.755
		c3.751,0,7.502,0,11.252,0c0,7.501,0,15.002,0,22.503c3.626,0,7.251,0,10.877,0c0.874-6.751,0.125-15.126,0.375-22.503
		c3.75,0,7.501,0,11.251,0c0,3.625,0,7.251,0,10.876c2.878,0.872,7.374,0.127,10.877,0.375c0.874-6.751,0.125-15.126,0.375-22.503
		c3.75,0,7.501,0,11.251,0c0,7.501,0,15.002,0,22.503c-3.625,0-7.251,0-10.876,0c-0.873,3.003-0.127,7.624-0.375,11.251
		c-3.626,0-7.251,0-10.877,0c-0.872,3.003-0.127,7.624-0.375,11.251c-3.625,0-7.251,0-10.876,0
		c-0.873,3.003-0.127,7.624-0.375,11.251c-15.002,0-30.004,0-45.006,0c0-3.75,0-7.501,0-11.251c-3.75,0-7.501,0-11.251,0
		c0-3.75,0-7.501,0-11.251c-3.75,0-7.501,0-11.251,0c-0.249-3.627,0.497-8.249-0.375-11.251
		C62.619,97.513,58.993,97.513,55.368,97.513z"/>
	<path fill-rule="evenodd" clip-rule="evenodd" d="M89.123,153.771c0-3.75,0-7.501,0-11.251c3.75,0,7.501,0,11.251,0
		c0,3.625,0,7.251,0,10.876c10.502,0.875,22.628,0.125,33.755,0.375c0-3.75,0-7.501,0-11.251c3.75,0,7.501,0,11.251,0
		c0,3.75,0,7.501,0,11.251c-3.75,0-7.501,0-11.251,0c0,3.75,0,7.501,0,11.251c-11.252,0-22.503,0-33.755,0
		c-0.248-3.627,0.498-8.249-0.375-11.251C96.374,153.771,92.748,153.771,89.123,153.771z"/>
	<path fill-rule="evenodd" clip-rule="evenodd" d="M89.123,232.531c0,3.751,0,7.501,0,11.252c-3.75,0-7.501,0-11.251,0
		c0-3.751,0-7.501,0-11.252c3.625,0,7.251,0,10.876,0c0.873-3.003,0.127-7.624,0.375-11.251c15.002,0,30.004,0,45.006,0
		c0,3.75,0,7.501,0,11.251c3.75,0,7.501,0,11.251,0c0,3.751,0,7.501,0,11.252c-3.75,0-7.501,0-11.251,0c0-3.501,0-7.001,0-10.501
		c0.057-0.388-0.079-0.729-0.375-0.751C120.783,231.579,103.114,233.245,89.123,232.531z"/>
	<path fill-rule="evenodd" clip-rule="evenodd" d="M77.871,288.789c0-3.625,0-7.251,0-10.876c-3.003-0.873-7.624-0.127-11.251-0.375
		c0-3.751,0-7.501,0-11.252c7.501,0,15.002,0,22.503,0c0,7.501,0,15.002,0,22.503c3.625,0,7.251,0,10.876,0
		c0.875-6.751,0.125-15.126,0.375-22.503c7.501,0,15.002,0,22.503,0c0,7.501,0,15.002,0,22.503c3.626,0,7.251,0,10.877,0
		c0.874-6.751,0.125-15.126,0.375-22.503c7.501,0,15.002,0,22.503,0c0,3.751,0,7.501,0,11.252c-3.751,0-7.501,0-11.252,0
		c0,3.75,0,7.501,0,11.251c-3.625,0-7.251,0-10.876,0c-0.873,3.003-0.127,7.624-0.375,11.252c-15.002,0-30.004,0-45.006,0
		c0-3.501,0-7.001,0-10.502C86.84,287.82,81.395,289.265,77.871,288.789z"/>
</g>
</svg>
