<?xml version="1.0" encoding="utf-8"?>
<!-- Generator: Adobe Illustrator 15.1.0, SVG Export Plug-In . SVG Version: 6.00 Build 0)  -->
<!DOCTYPE svg PUBLIC "-//W3C//DTD SVG 1.1//EN" "http://www.w3.org/Graphics/SVG/1.1/DTD/svg11.dtd">
<svg version="1.1" id="Ebene_1" xmlns="http://www.w3.org/2000/svg" xmlns:xlink="http://www.w3.org/1999/xlink" x="0px" y="0px"
	 width="321.782px" height="169.23px" viewBox="0 0 321.782 169.23" enable-background="new 0 0 321.782 169.23"
	 xml:space="preserve">
<g id="XMLID_1_">
	<g>
		<path d="M170,138.854c0-3.33,0-6.67,0-10c6.33,0,12.67,0,19,0c2.32-4.35,0.35-12.99,1-19c-4.68-2.32-13.66-0.34-20-1
			c0,6.67,0,13.33,0,20c-3.33,0-6.67,0-10,0c0,3.33,0,6.67,0,10c-6.33,0-12.67,0-19,0c-2.28,1.39-0.37,6.96-1,10c-10,0-20,0-30,0
			c0-3.33,0-6.67,0-10c-30,0-60,0-90,0c0-3.33,0-6.67,0-10c30,0,60,0,90,0c0-6.33,0-12.67,0-19c-28-2.33-60.33-0.33-90-1
			c0,6.67,0,13.33,0,20c-3.33,0-6.67,0-10,0c0-6.67,0-13.33,0-20c3,0,6,0,9,0c2.28-1.39,0.37-6.96,1-10c29.67,0,59.33,0,89,0
			c2.28-1.39,0.37-6.96,1-10c10,0,20,0,30,0c0,3.33,0,6.67,0,10c-6.33,0-12.67,0-19,0c-2.33,11.34-0.34,27-1,40c6.33,0,12.67,0,19,0
			c2.28-1.39,0.37-6.96,1-10c3.33,0,6.67,0,10,0c0-6.33,0-12.67,0-19c-1.39-2.28-6.96-0.37-10-1c0-3.33,0-6.67,0-10
			c6.67,0,13.33,0,20,0c0,3.33,0,6.67,0,10c3,0,6,0,9,0c2.28-1.39,0.37-6.96,1-10c3.33,0,6.67,0,10,0c0-3.33,0-6.67,0-10
			c3.33,0,6.67,0,10,0c0,3.33,0,6.67,0,10c13.33,0,26.67,0,40,0c0-6.33,0-12.67,0-19c-1.39-2.28-6.96-0.37-10-1c0-3.33,0-6.67,0-10
			c3.33,0,6.67,0,10,0c0-6.67,0-13.33,0-20c6.33,0,12.67,0,19,0c2.28-1.39,0.37-6.96,1-10c3.33,0,6.67,0,10,0c0,3.33,0,6.67,0,10
			c-3,0-6,0-9,0c-2.28,1.39-0.37,6.96-1,10c-3.33,0-6.67,0-10,0c0,13.33,0,26.67,0,40c6.33,0,12.67,0,19,0
			c2.33-14.67,0.33-33.66,1-50c3.33,0,6.67,0,10,0c0,9.67,0,19.33,0,29c1.39,2.28,6.96,0.37,10,1c0-6.67,0-13.33,0-20c3,0,6,0,9,0
			c2.28-1.39,0.37-6.96,1-10c3.33,0,6.67,0,10,0c0-6.67,0-13.33,0-20c3.33,0,6.67,0,10,0c0,6.67,0,13.33,0,20c-3,0-6,0-9,0
			c-2.28,1.39-0.37,6.96-1,10c-3.33,0-6.67,0-10,0c0,6.67,0,13.33,0,20c-3,0-6,0-9,0c-2.28,1.39-0.37,6.96-1,10c-3.33,0-6.67,0-10,0
			c0,6.67,0,13.33,0,20c-9.67,0-19.33,0-29,0c-2.28,1.39-0.37,6.96-1,10c-3.33,0-6.67,0-10,0c0-3.33,0-6.67,0-10c-10,0-20,0-30,0
			c0,6.67,0,13.33,0,20c6.33,0,12.67,0,19,0c2.28-1.39,0.37-6.96,1-10c3.33,0,6.67,0,10,0c0,6.67,0,13.33,0,20c-9.67,0-19.33,0-29,0
			c-2.28,1.39-0.37,6.96-1,10c9.67,0,19.33,0,29,0c2.28-1.39,0.37-6.96,1-10c9.67,0,19.33,0,29,0c2.28-1.39,0.37-6.96,1-10
			c3.33,0,6.67,0,10,0c0-6.67,0-13.33,0-20c6.67,0,13.33,0,20,0c0,3.33,0,6.67,0,10c-3.33,0-6.67,0-10,0c0,6.67,0,13.33,0,20
			c-3.33,0-6.67,0-10,0c0,3.33,0,6.67,0,10c6.33,0,12.67,0,19,0c2.33-8.01,0.34-20.33,1-30c3.33,0,6.67,0,10,0c0,9.67,0,19.33,0,29
			c1.39,2.28,6.96,0.37,10,1c0,3.33,0,6.67,0,10c-43.33,0-86.67,0-130,0c0-3.33,0-6.67,0-10c3.33,0,6.67,0,10,0c0-3.33,0-6.67,0-10
			C183.33,138.854,176.67,138.854,170,138.854z"/>
		<path d="M170,48.854c0-10,0-20,0-30c3.33,0,6.67,0,10,0c0,3.33,0,6.67,0,10c3,0,6,0,9,0c2.28-1.39,0.37-6.96,1-10
			c6.33,0,12.67,0,19,0c2.28-1.39,0.37-6.96,1-10c20,0,40,0,60,0c0,3.33,0,6.67,0,10c-19.67,0-39.33,0-59,0
			c-2.28,1.39-0.37,6.96-1,10c-6.33,0-12.67,0-19,0c-2.32,4.35-0.35,12.99-1,19c1.39,2.28,6.96,0.37,10,1c0,3.33,0,6.67,0,10
			c6.67,0,13.33,0,20,0c0,3.33,0,6.67,0,10c-3.33,0-6.67,0-10,0c0,6.67,0,13.33,0,20c-3.33,0-6.67,0-10,0c0-6.33,0-12.67,0-19
			c-1.06-2.27-6.29-0.38-9-1c-2.28,1.39-0.37,6.96-1,10c-3.33,0-6.67,0-10,0c0,3.33,0,6.67,0,10c-3.33,0-6.67,0-10,0
			c0-6.67,0-13.33,0-20c3.33,0,6.67,0,10,0c0-6.33,0-12.67,0-19C178.61,47.575,173.04,49.484,170,48.854z"/>
		<path fill="#FFFFFF" d="M20,108.854c29.67,0.67,62-1.33,90,1c0,6.33,0,12.67,0,19c-30,0-60,0-90,0
			C20,122.185,20,115.524,20,108.854z"/>
		<path fill="#FFFFFF" d="M300,28.854c0,6.67,0,13.33,0,20c-3.33,0-6.67,0-10,0c-0.63,3.04,1.28,8.61-1,10c-3,0-6,0-9,0
			c0,6.67,0,13.33,0,20c-3.04-0.63-8.61,1.28-10-1c0-9.67,0-19.33,0-29c-3.33,0-6.67,0-10,0c0-3.33,0-6.67,0-10c-3.33,0-6.67,0-10,0
			c-0.63,3.04,1.28,8.61-1,10c-6.33,0-12.67,0-19,0c0-3.33,0-6.67,0-10c-3.33,0-6.67,0-10,0c0-3.33,0-6.67,0-10c-3.33,0-6.67,0-10,0
			c0.63-3.04-1.28-8.61,1-10c19.67,0,39.33,0,59,0c0,3.33,0,6.67,0,10C280,28.854,290,28.854,300,28.854z"/>
		<path d="M300,18.854c0,3.33,0,6.67,0,10c-10,0-20,0-30,0c0-3.33,0-6.67,0-10C280,18.854,290,18.854,300,18.854z"/>
		<path fill="#FFFFFF" d="M251,48.854c3,0,6,0,9,0c-0.67,16.34,1.33,35.33-1,50c-6.33,0-12.67,0-19,0c0-13.33,0-26.67,0-40
			c3.33,0,6.67,0,10,0C250.63,55.814,248.72,50.245,251,48.854z"/>
		<path fill="#FFFFFF" d="M230,108.854c0,3.33,0,6.67,0,10c-3.33,0-6.67,0-10,0c-0.63,3.04,1.28,8.61-1,10c-6.33,0-12.67,0-19,0
			c0-6.67,0-13.33,0-20C210,108.854,220,108.854,230,108.854z"/>
		<path fill="#FFFFFF" d="M230,79.854c0,6.33,0,12.67,0,19c-13.33,0-26.67,0-40,0c0-3.33,0-6.67,0-10c-3.33,0-6.67,0-10,0
			c0-3.33,0-6.67,0-10c3.33,0,6.67,0,10,0c0.63-3.04-1.28-8.61,1-10c2.71,0.62,7.94-1.27,9,1c0,6.33,0,12.67,0,19
			c3.33,0,6.67,0,10,0c0-6.67,0-13.33,0-20c3.33,0,6.67,0,10,0c0,3.33,0,6.67,0,10C223.04,79.484,228.61,77.575,230,79.854z"/>
		<path fill="#FFFFFF" d="M230,48.854c0,6.67,0,13.33,0,20c-3.33,0-6.67,0-10,0c0-3.33,0-6.67,0-10c-6.67,0-13.33,0-20,0
			c0-3.33,0-6.67,0-10c-3.04-0.63-8.61,1.28-10-1c0.65-6.01-1.32-14.65,1-19c6.33,0,12.67,0,19,0c0,3.33,0,6.67,0,10
			c3.33,0,6.67,0,10,0c0,3.33,0,6.67,0,10C223.33,48.854,226.67,48.854,230,48.854z"/>
		<path d="M230,38.854c0,3.33,0,6.67,0,10c-3.33,0-6.67,0-10,0c0-3.33,0-6.67,0-10C223.33,38.854,226.67,38.854,230,38.854z"/>
		<path fill="#FFFFFF" d="M201,138.854c9.67,0,19.33,0,29,0c-0.63,3.04,1.28,8.61-1,10c-9.67,0-19.33,0-29,0
			C200.63,145.814,198.72,140.245,201,138.854z"/>
		<path d="M220,28.854c0,3.33,0,6.67,0,10c-3.33,0-6.67,0-10,0c0-3.33,0-6.67,0-10C213.33,28.854,216.67,28.854,220,28.854z"/>
		<path fill="#FFFFFF" d="M190,109.854c-0.65,6.01,1.32,14.65-1,19c-6.33,0-12.67,0-19,0c0-6.67,0-13.33,0-20
			C176.34,109.515,185.32,107.535,190,109.854z"/>
	</g>
	<g>
	</g>
</g>
</svg>
